<svg xmlns="http://www.w3.org/2000/svg" version="1.1" viewBox="0 0 275 183"><path d="M0 0h275v183H0V0Z" fill="#151618"/><path d="m118 8 2 1-1 3 3-3c-.484 4.356-1.79 6.091-5 9l-1 2-1 1 4 2 2-4h2l1-4h3l1-4h2c-.813 2.438-.813 2.438-2 5l-3 1-1 3h-2c-1.491 3.622-2.787 7.276-4 11 2.053-1.842 2.053-1.842 3-4h2l1.375-2.5L126 22h4c-1.263 4.633-3.88 7.08-7.254 10.285-1.938 1.831-1.938 1.831-4.058 4.653L117 39h-2v2l-3 1 1-4h2l1-7c-3.97 2.095-6.52 4.235-9 8v4l4-1v5c5.202-1.297 8.259-3.697 11.875-7.5l1.508-1.512C127.16 35.453 127.16 35.453 128 32h3v-2c2.962.613 4.38 1.254 7 3a487.27 487.27 0 0 0 7.82 3.684C148 38 148 38 149 41l1-1c6.176-.334 11.236 1.77 16.938 3.938l2.13.802A491.256 491.256 0 0 1 180 49l-2 1v3c-1.627-.45-3.252-.91-4.875-1.375l-2.742-.773C168 50 168 50 166 48l-1 2 2 1c-7.34-1.319-14.102-3.436-20.375-7.563C142.367 41.106 137.691 40.16 133 39l-2.113-.8c-2.025-.435-2.025-.435-3.739 1.234l-1.773 2.004A80.695 80.695 0 0 1 122 45h-2l-.688 1.688C117.025 50.72 113.825 53.45 110 56c-.724 2.06-.724 2.06-1 4h-2v2l3.313-1.438A80.43 80.43 0 0 1 117 58l1 1 1-4h3l.316-1.797c.785-2.527 1.735-3.626 3.621-5.453l1.59-1.578C129 45 129 45 131 45v-2c5.423.646 10.142 2.395 15.188 4.375l2.443.922 2.35.914 2.121.822c2.07 1.055 3.292 2.31 4.898 3.967 2.6 1.19 2.6 1.19 5 2v2l3 1v3h3v-5l7 2v2l3 1 .375 2.438L180 67l2 1c-7.227-1.445-14.038-3.6-21-6-1.416-.46-2.833-.918-4.25-1.375-5.82-1.933-11.54-4.15-17.273-6.32A184.494 184.494 0 0 0 133 52c.106 1.958.106 1.958 1 4 2.26 1.25 2.26 1.25 5.094 2.035l3.12 1.014 3.286 1.014c2.139.667 4.274 1.345 6.406 2.035l2.885.89L157 64l1 3c3.008 1.225 3.008 1.225 6 2v4l4 1v-5l1 2c2.527.656 2.527.656 5 1v3l5-2 2 6h2v2c-7.226-1.445-14.039-3.603-21-6-2.197-.737-4.396-1.47-6.596-2.2-1.609-.535-3.217-1.075-4.824-1.618a995.014 995.014 0 0 0-7.33-2.432l-2.496-.852c-5.837-2.007-5.837-2.007-11.754-.898l-2 3c-2.933 1.39-5.85 2.265-9 3l-3 1c-1.178 2.944-1.033 3.9 0 7l3.188-2.375c3.767-2.694 7.434-4.166 11.812-5.625v4h2l-1-7c6.752 1.408 13.289 3.208 19.875 5.25l3.007.924c3.04.937 6.08 1.88 9.118 2.826l2.882.896c2.645.823 5.288 1.65 7.93 2.479l2.424.759C181.76 84.88 181.76 84.88 184 86v8c-8.081-1.701-16.035-3.83-24-6l-2.244-.607a2279.76 2279.76 0 0 1-6.944-1.893l-2.299-.628c-5.482-1.523-10.82-3.318-16.13-5.368-3.001-.635-3.84-.151-6.383 1.496l-2.516 1.516c-5.027 3.188-9.94 6.425-14.632 10.093C107 94 107 94 105.023 95.203c-3.702 2.286-5.377 3.798-6.46 8.11L98 107l2.3-1.277 3.013-1.66 2.988-1.653C109 101 109 101 112 100a71.079 71.079 0 0 0 3.25-3.875c4.193-4.955 8.368-6.849 14.75-8.125v4h2l1-5h-2v-2c8.1 1.281 15.84 3.26 23.688 5.625l3.318.984c2.666.792 5.33 1.589 7.994 2.391l.375 2.938L167 100l2 1v-5l-2-1c12.727 1.364 12.727 1.364 18 4v2h-2v5h2v2c-17.832-3.609-17.832-3.609-26.563-6a469.672 469.672 0 0 0-17-4.313l-2.273-.556c-4.351-.992-7.776-1.409-12.164-.131-2.072 1.352-2.072 1.352-4 3a204.258 204.258 0 0 1-5.438 3c-2.8 1.496-5.54 2.986-8.222 4.688C107 109 107 109 104 109l-1 3h-4l-2 3h-3l-1 3h-2l1 4 3-1v-2l6-1v-2a8180.87 8180.87 0 0 1 7.828-4.266 851.992 851.992 0 0 0 6.281-3.468l2.954-1.641 2.722-1.523C123 104 123 104 125 104v-2c5.927-2.22 9.86-1.86 15.938-.375l2.516.572c5.935 1.365 11.844 2.845 17.74 4.367 5.857 1.5 11.752 2.64 17.697 3.725 2.699.617 4.73 1.333 7.109 2.711v2h-2l2 7c-14.067-2.457-28.12-4.964-42.125-7.75l-3.228-.637-2.967-.597-2.602-.523C133 112 133 112 131 111v5h7v2l3.707.516a448.994 448.994 0 0 1 33.277 6.045c3.994.87 8.005 1.65 12.016 2.439v2h-3v4l5 2-1 9-5 1v4l6 1v12c4.59-1.148 5.337-2.29 8-6v2l14 1v-6h-3v-2h2v-7c1.64.03 1.64.03 3.313.063 3.63.122 3.63.122 6.687-1.063 2.188.938 2.188.938 4 2l-.563 1.75c-.606 2.231-.606 2.231.125 4.313L224 153l-2 3h2v4l-7 1-1-3v9c3.312.828 5.66 1.093 9 1l1-2 6 1-.063-1.68a595.538 595.538 0 0 1-.187-7.57l-.102-2.645c-.1-6.521-.1-6.521 2.368-9.714.654-.46 1.31-.918 1.984-1.391 1.938.688 1.938.688 4 2 .75 2.625.75 2.625 1 5l6-2 1-5c4.054-.071 7.733-.04 11.75.563 3.02.406 4.446.372 7.25-.563a532.43 532.43 0 0 1 5-1v-4l-4-1c1.813-1.063 1.813-1.063 4-2l3 1v46H0v-13l9-4 2 3 1.813-.563C15 168 15 168 18 169v-4l1.875-.25c2.31-.551 2.31-.551 3.258-2.797L24 160c14 0 14 0 16.313.563 2.882.469 4.88.159 7.687-.563l.438-1.75c.337-1.348.679-2.695 1.03-4.04.625-2.598 1.116-5.206 1.594-7.835l.536-2.914c.456-2.374.456-2.374.402-4.461 3.442-2.147 5.772-2.099 9.75-1.625l2.984.336L67 138l1-9-6 1 5 1v1l-2.3.078-3.013.172-2.988.14c-2.838.37-2.838.37-4.554 2.657L53 137c-.281-7.166.796-13.945 2-21h2l3-16c6-1 6-1 10 0v11l2-16c8.875.875 8.875.875 10 2 .234 1.849.413 3.705.563 5.563l.253 3.066L83 108c2 .043 4 .04 6 0l1-1-7-1v-1l9 1c-3.087-3.087-3.92-3.449-8-4v-5c3.375-.188 3.375-.188 7 0l2 3 1.59-1.719c3.274-3.099 6.964-5.466 10.72-7.926 3.15-2.113 5.857-3.98 7.69-7.355l-1-3-2.188 1.313a163.212 163.212 0 0 1-5.312 3.062c-2.678 1.61-2.678 1.61-5.125 4.313C97 91 97 91 94 91c.523-4.005 2.397-5.648 5.375-8.25l2.398-2.14C104 79 104 79 107 79l1-3a107.027 107.027 0 0 1 6-4l-4 1 .563-1.875c.674-2.167.674-2.167-.563-4.125l-1.242 1.531-1.633 1.969-1.617 1.969L104 74h-2l-.688 2.438L100 79c-2.625.813-2.625.813-5 1v-4h2v-2c4.47-4 4.47-4 7-4l-1-2c-3.118.646-3.118.646-4 3l-2-2-2 1c.301-3.613.709-4.745 3.5-7.188L101 61l1-2h2c1.563-4.393 1.563-4.393 2-9h-2l-.75 1.875c-1.478 2.512-2.69 2.886-5.25 4.125l-1 3-1-3 3-1 1-3h2l1-3h2l1-7-1.375 1.375C102.151 45.849 100.177 47.517 97 49l1-4h2l1-4h2l1-5c-2.762 0-3.893 1.314-6 3-.326-4.162-.407-6.363 1.875-9.938C102 27 102 27 104 27v-2l2 1v1l1-2h2c1.414-2.382 1.414-2.382 2-5l-1-3c1.813-2.688 1.813-2.688 4-5h2l2-4Z" fill="#6E5D2B"/><path d="M72 95c8.875.875 8.875.875 10 2 .087 1.635.107 3.273.098 4.91l-.01 2.998-.025 3.154-.014 3.167c-.012 2.59-.028 5.18-.049 7.771 3 1.333 3 1.333 6 0v2h2l-1 9h-8l-1-3-3.313.063C73 127 73 127 70 126v6h6v1h-7v2l10 1 1 3 2.875-.063C86 139 86 139 88 140l-1 2 1 1c.04 1.666.043 3.334 0 5l-9 1-1 5 3-1v7c3.132-.898 3.132-.898 6-3l-3-1 3-1 1-2h5l-1-6 4 1v5h6l-1 2h3l1 4 1-5 4-1v4h3l1-5h4v3h-3l1 4 4-1 1-7 4-1v4h-3v4l7-1v3h3v-4c8.571-.143 8.571-.143 12 1l-1-5h4l1 4 2-1v6l2.313.438C155 162 155 162 158 163v2h19v7h-2l-1-2-2 2c-2.125-.375-2.125-.375-4-1l-1 4v-5l-9-1v2h4l-2 5-5-1v-3h-8v3l-2 1v2h-9v-2l-4-1-1 2-2.438-.5c-4.448-.708-4.448-.708-12.562-.5l28 6v1H0v-13l9-4 2 3 1.813-.563C15 168 15 168 18 169v-4l1.875-.25c2.31-.551 2.31-.551 3.258-2.797L24 160c14 0 14 0 16.313.563 2.882.469 4.88.159 7.687-.563l.438-1.75c.337-1.348.679-2.695 1.03-4.04.625-2.598 1.116-5.206 1.594-7.835l.536-2.914c.456-2.374.456-2.374.402-4.461 3.442-2.147 5.772-2.099 9.75-1.625l2.984.336L67 138l1-9-6 1 5 1v1l-2.3.078-3.013.172-2.988.14c-2.838.37-2.838.37-4.554 2.657L53 137c-.281-7.166.796-13.945 2-21h2l3-16c6-1 6-1 10 0v11l2-16Z" fill="#9E8240"/><path d="m270 136 5 1v46c-16.493.16-32.986.288-49.48.363-7.662.035-15.324.084-22.986.165-66.072.685-66.072.685-92.534-7.528v-1c2.375-.054 4.75-.094 7.125-.125.665-.017 1.33-.034 2.016-.05 4.354-.043 7.815.575 11.859 2.175l1-3 5 1-1 3h9v-2l-3-1h5v-3h8v3h3l1-2 3-2h-4v-2h12l-3 1c.308 1.647.621 3.292.938 4.938l.527 2.777c.312 2.238.312 2.238 1.535 3.285 2.333.04 4.667.042 7 0l-7-1-1-5h5l1 3h4v-2l4-1v3l4-1-3-1-1-6 1 2 2.875-.125c4.832-.02 9.431 1.067 14.125 2.125v-2l-2-1 9 1v2c3.125-1.635 3.125-1.635 3.688-4.125L212 168h-2l-2-5h-4c-1.672-.304-3.34-.631-5-1v-3h-2v2l-2-1 2-4v2l14 1v-6h-3v-2h2v-7l3.313.063c3.63.122 3.63.122 6.687-1.063 2.188.938 2.188.938 4 2l-.563 1.75c-.606 2.231-.606 2.231.125 4.313L224 153l-2 3h2v4l-7 1-1-3v9c3.312.828 5.66 1.093 9 1l1-2 6 1-.063-1.68a595.538 595.538 0 0 1-.187-7.57l-.102-2.645c-.1-6.521-.1-6.521 2.368-9.714.654-.46 1.31-.918 1.984-1.391 1.938.688 1.938.688 4 2 .75 2.625.75 2.625 1 5l6-2 1-5c4.054-.071 7.733-.04 11.75.563 3.02.406 4.446.372 7.25-.563a532.43 532.43 0 0 1 5-1v-4l-4-1 2-2Z" fill="#483727"/><path d="m118 8 2 1-1 3 3-3c-.484 4.356-1.79 6.091-5 9l-1 2-1 1 4 2 2-4h2l1-4h3l1-4h2c-.813 2.438-.813 2.438-2 5l-3 1-1 3h-2c-1.491 3.622-2.787 7.276-4 11 2.053-1.842 2.053-1.842 3-4h2l1.375-2.5L126 22h4c-1.263 4.633-3.88 7.08-7.254 10.285-1.938 1.831-1.938 1.831-4.058 4.653L117 39h-2v2l-3 1 1-4h2l1-7c-3.97 2.095-6.52 4.235-9 8v4l4-1v5c5.202-1.297 8.259-3.697 11.875-7.5l1.508-1.512C127.16 35.453 127.16 35.453 128 32h3v-2c2.962.613 4.38 1.254 7 3a487.27 487.27 0 0 0 7.82 3.684C148 38 148 38 149 41l1-1c6.176-.334 11.236 1.77 16.938 3.938l2.13.802A491.256 491.256 0 0 1 180 49l-2 1v3c-1.627-.45-3.252-.91-4.875-1.375l-2.742-.773C168 50 168 50 166 48l-1 2 2 1c-7.34-1.319-14.102-3.436-20.375-7.563C142.367 41.106 137.691 40.16 133 39l-2.113-.8c-2.025-.435-2.025-.435-3.739 1.234l-1.773 2.004A80.695 80.695 0 0 1 122 45h-2l-.688 1.688C117.025 50.72 113.825 53.45 110 56c-.724 2.06-.724 2.06-1 4h-2v2l3.313-1.438A80.43 80.43 0 0 1 117 58l1 1 1-4h3l.316-1.797c.785-2.527 1.735-3.626 3.621-5.453l1.59-1.578C129 45 129 45 131 45v-2c5.423.646 10.142 2.395 15.188 4.375l2.443.922 2.35.914 2.121.822c2.07 1.055 3.292 2.31 4.898 3.967 2.6 1.19 2.6 1.19 5 2v2l3 1v3h3v-5l7 2v2l3 1 .375 2.438L180 67l2 1c-7.227-1.445-14.038-3.6-21-6-1.416-.46-2.833-.918-4.25-1.375-5.82-1.933-11.54-4.15-17.273-6.32A184.494 184.494 0 0 0 133 52c.106 1.958.106 1.958 1 4 2.26 1.25 2.26 1.25 5.094 2.035l3.12 1.014 3.286 1.014c2.139.667 4.274 1.345 6.406 2.035l2.885.89L157 64l1 3c3.008 1.225 3.008 1.225 6 2v4l4 1v-5l1 2c2.527.656 2.527.656 5 1v3l5-2 2 6h2v2c-7.226-1.445-14.039-3.603-21-6-2.197-.737-4.396-1.47-6.596-2.2-1.609-.535-3.217-1.075-4.824-1.618a995.014 995.014 0 0 0-7.33-2.432l-2.496-.852c-5.837-2.007-5.837-2.007-11.754-.898l-2 3c-2.625 1.188-2.625 1.188-5 2l-1-5-1.39 1.059-1.86 1.379-1.828 1.37C113.937 72.04 112.28 72.562 110 73l.563-1.875c.674-2.167.674-2.167-.563-4.125l-1.242 1.531-1.633 1.969-1.617 1.969L104 74h-2l-.688 2.438L100 79c-2.625.813-2.625.813-5 1v-4h2v-2c4.47-4 4.47-4 7-4l-1-2c-3.118.646-3.118.646-4 3l-2-2-2 1c.301-3.613.709-4.745 3.5-7.188L101 61l1-2h2c1.563-4.393 1.563-4.393 2-9h-2l-.75 1.875c-1.478 2.512-2.69 2.886-5.25 4.125l-1 3-1-3 3-1 1-3h2l1-3h2l1-7-1.375 1.375C102.151 45.849 100.177 47.517 97 49l1-4h2l1-4h2l1-5c-2.762 0-3.893 1.314-6 3-.326-4.162-.407-6.363 1.875-9.938C102 27 102 27 104 27v-2l2 1v1l1-2h2c1.414-2.382 1.414-2.382 2-5l-1-3c1.813-2.688 1.813-2.688 4-5h2l2-4Z" fill="#221A0E"/><path d="M119 67h2v4c-3.214 3-3.214 3-6 3-.934 3.01-1.044 3.867 0 7l3.188-2.375c3.767-2.694 7.434-4.166 11.812-5.625v4h2l-1-7c6.752 1.408 13.289 3.208 19.875 5.25l3.007.924c3.04.937 6.08 1.88 9.118 2.826l2.882.896c2.645.823 5.288 1.65 7.93 2.479l2.424.759C181.76 84.88 181.76 84.88 184 86v8c-8.081-1.701-16.035-3.83-24-6l-2.244-.607a2279.76 2279.76 0 0 1-6.944-1.893l-2.299-.628c-5.482-1.523-10.82-3.318-16.13-5.368-3.001-.635-3.84-.151-6.383 1.496l-2.516 1.516c-5.027 3.188-9.94 6.425-14.632 10.093C107 94 107 94 105.023 95.203c-3.702 2.286-5.377 3.798-6.46 8.11L98 107l2.3-1.277 3.013-1.66 2.988-1.653C109 101 109 101 112 100a71.079 71.079 0 0 0 3.25-3.875c4.193-4.955 8.368-6.849 14.75-8.125v4h2l1-5h-2v-2c8.1 1.281 15.84 3.26 23.688 5.625l3.318.984c2.666.792 5.33 1.589 7.994 2.391l.375 2.938L167 100l2 1v-5l-2-1c12.727 1.364 12.727 1.364 18 4v2h-2v5h2v2c-17.832-3.609-17.832-3.609-26.563-6a469.672 469.672 0 0 0-17-4.313l-2.273-.556c-4.351-.992-7.776-1.409-12.164-.131-2.072 1.352-2.072 1.352-4 3a204.258 204.258 0 0 1-5.438 3c-2.8 1.496-5.54 2.986-8.222 4.688C107 109 107 109 104 109l-1 3h-4l-2 3h-3l-1 3-10-1v-9l2.938.063c2.937.293 2.937.293 4.062-1.063l-7-1v-1l9 1c-3.087-3.087-3.92-3.449-8-4v-5c3.375-.188 3.375-.188 7 0l2 3 1.59-1.719c3.274-3.099 6.964-5.466 10.72-7.926 3.15-2.113 5.857-3.98 7.69-7.355l-1-3-2.188 1.313a163.212 163.212 0 0 1-5.312 3.062c-2.678 1.61-2.678 1.61-5.125 4.313C97 91 97 91 94 91c.523-4.005 2.397-5.648 5.375-8.25l2.398-2.14C104 79 104 79 107 79l1-3a392.898 392.898 0 0 1 5-3 140.693 140.693 0 0 0 5-5l1-1Z" fill="#776832"/><path d="m61.75 137.375 2.984.336L67 138l-1 5-2.371-.035-3.066-.028-3.06-.035c-2.443-.188-2.443-.188-3.503 1.098h10l1 4-2.371.148-3.066.227c-1.01.07-2.02.14-3.06.21-.825.138-1.652.274-2.503.415l-1 2h3v3l9 1v1h-9v2h-3l-1 4h9v2l-10 1-1-3-1 5-1-2-3.313.063C41 165 41 165 38 164v2l1.773.41c7.112 1.783 13.778 4.312 20.57 7.026 5.789 2.289 11.585 4.16 17.657 5.564v-3l-2.313.563C73 177 73 177 70 176l-1-2h-5v-3l2.012.254c4.592.53 8.458.915 12.988-.254l1 1c1.347.23 2.704.412 4.063.563L88 173v1l3.25.375c3.195.532 4.984 1.143 7.75 2.625h3v2l2.117-.035 2.758-.028 2.742-.035C112 179 112 179 114 180v2l3 1H0v-13l9-4 2 3 1.813-.563C15 168 15 168 18 169v-4l1.875-.25c2.31-.551 2.31-.551 3.258-2.797L24 160c14 0 14 0 16.313.563 2.882.469 4.88.159 7.687-.563l.438-1.75c.337-1.348.679-2.695 1.03-4.04.625-2.598 1.116-5.206 1.594-7.835l.536-2.914c.456-2.374.456-2.374.402-4.461 3.442-2.147 5.772-2.099 9.75-1.625Z" fill="#7A6753"/><path d="M70 136h9l1 3c1.423-.03 1.423-.03 2.875-.063C86 139 86 139 88 140l-1 2 1 1c.04 1.666.043 3.334 0 5l-9 1-1 5 3-1v7c3.132-.898 3.132-.898 6-3l-3-1 3-1 1-2h5l-1-6 4 1v5h6l-1 2h3l1 4 1-5 4-1v4h3l1-5h4v3h-3l1 4 4-1 1-7 4-1v4h-3v4l7-1v3h3v-4c8.571-.143 8.571-.143 12 1l-1-5h4l1 4 2-1v6l2.313.438C155 162 155 162 158 163v2h19v7h-2l-1-2-2 2c-2.125-.375-2.125-.375-4-1l-1 4v-5l-9-1v2h4l-2 5-5-1v-3h-8v3l-2 1v2h-9v-2l-4-1-1 2-7-2v-2h2v-3c-3.417-.167-3.417-.167-7 0l-2 2v-2h-6l-1 2v-4l-10-1 1-2-6-1 1.063 2.875C97 170 97 170 96 172h-3v-8l-3.688.563c-3.389.517-5.97.155-9.312-.563-2.824-.25-5.648-.439-8.477-.621C69 163 69 163 66 161l2-5h9v-7h-8c-1.514-4.845-.366-8.26 1-13Z" fill="#F5D37F"/><path d="m270 136 5 1v46h-47v-6c7.878-1.723 15.468-2.138 23.5-2.063l2.781.014c2.24.012 4.48.028 6.719.049l-1-5h-9l-1-4h-8v2c-3.848 1.18-7.758 1.332-11.75 1.563l-2.113.13c-1.712.106-3.425.207-5.137.307l3-4 6 1-.063-1.68a595.538 595.538 0 0 1-.187-7.57l-.102-2.645c-.1-6.521-.1-6.521 2.368-9.714.654-.46 1.31-.918 1.984-1.391 1.938.688 1.938.688 4 2 .75 2.625.75 2.625 1 5l6-2 1-5c4.054-.071 7.733-.04 11.75.563 3.02.406 4.446.372 7.25-.563a532.43 532.43 0 0 1 5-1v-4l-4-1 2-2Z" fill="#3D3B3D"/><path d="m148.41 144.313 2.585.403c2.69.422 5.379.853 8.067 1.284l5.514.867c4.476.704 8.95 1.416 13.424 2.133v2h-6v6l11 1 1 3h2v-9l-7-1v-1h10v12c3.747-.783 3.747-.783 6-2l2 1v-2h2v3h9c2 3 2 3 2 6h2c-.557 3.344-1.352 6.033-3 9h-2l-2-5h-4v2l-2.375-.125c-2.786-.162-2.786-.162-4.625 2.125v-3c-1.918.03-1.918.03-3.875.063-3.875.062-3.875.062-6.125-1.063 1.109 2.217 2.494 4.036 4 6h-5l-1-2h-3l1 3c-2.375.188-2.375.188-5 0l-2-3c-2.06-.724-2.06-.724-4-1v2l2 1-1 2h9c-2 2-2 2-5.5 2.25C170 182 170 182 168 180c-.972-3.359-1.107-5.678 0-9h4l2-2 1 3h2v-7l-2 1c-2.89-.09-5.744-.234-8.625-.438l-2.43-.158c-1.982-.13-3.963-.266-5.945-.404v-2l-2.313-.438c-5.367-1.123-5.367-1.123-7.375-3.875C147 156 147 156 147 152l-3 1v4l-12-1v4h-3v-3l-7 1v-4l3-1v-2h-4l-.438 3.375C120 158 120 158 119 160l-4-1v-4h3v-3c-2.437.27-2.437.27-5 1l-2 3v-5h2l.559-1.86c2.126-3.157 4.982-3.548 8.504-4.39l3.847-1.016c7.538-1.573 14.98-.645 22.5.578Z" fill="#CFB757"/><path d="M130 128v9l2.324.113c7.704.457 15.287 1.301 22.926 2.387l2.815.396c6.678.976 6.678.976 8.935 2.104l.438 2 .562 2 3 1v-5l1 3 3-2c5.345-.327 5.345-.327 8 1v5l2 1-3 1 4 1v9h-2l-1 2v-5l-5.957.098C175 158 175 158 172 157v-6h6v-2l-1.91-.146c-9.025-.75-17.935-2.104-26.883-3.481-9.618-1.429-17.721-2.115-27.144.44l-1.995.501c-3.716 1.009-4.857 1.37-7.068 4.686l-1 1h1v5h-3v-4l-4 1v4l2 1h-3l-1-4-7 1 2-2-3-1-1-5-3-1 1 6h-5l-1 7h-2l-2 1-2-1c-.625-3.063-.625-3.063-1-6h-2v-6l2.875.063c3.032.163 3.032.163 5.125-1.063l2 1v-5h-2c1-2 1-2 4-3a207.73 207.73 0 0 1 5.063-.313c5.926-.504 10.54-2.314 15.937-4.687 2.267-.885 4.538-1.76 6.813-2.625 3.013-1.153 6.022-2.308 9.011-3.523C129 128 129 128 130 128Z" fill="#7F6D2D"/><path d="M131 43c5.423.646 10.142 2.395 15.188 4.375l2.443.922 2.35.914 2.121.822c2.07 1.055 3.292 2.31 4.898 3.967 2.6 1.19 2.6 1.19 5 2v2l3 1v3h3v-5l7 2v2l3 1 .375 2.438L180 67l2 1c-7.227-1.445-14.038-3.6-21-6-1.416-.46-2.833-.918-4.25-1.375-5.82-1.933-11.54-4.15-17.273-6.32A184.494 184.494 0 0 0 133 52c.106 1.958.106 1.958 1 4 2.26 1.25 2.26 1.25 5.094 2.035l3.12 1.014 3.286 1.014c2.139.667 4.274 1.345 6.406 2.035l2.885.89L157 64l1 3c3.008 1.225 3.008 1.225 6 2v4l4 1v-5l1 2c2.527.656 2.527.656 5 1v3l5-2 2 6h2v2c-7.226-1.445-14.039-3.603-21-6-2.197-.737-4.396-1.47-6.596-2.2-1.609-.535-3.217-1.075-4.824-1.618a995.014 995.014 0 0 0-7.33-2.432l-2.496-.852c-5.837-2.007-5.837-2.007-11.754-.898l-2 3c-2.625 1.188-2.625 1.188-5 2l-1-5-1.39 1.059-1.86 1.379-1.828 1.37C113.937 72.04 112.28 72.562 110 73c.188-3.313.188-3.313 1-7 2.438-1.688 2.438-1.688 5-3 1.639-2.54 2.37-5.057 3-8h3l.316-1.797c.785-2.527 1.735-3.626 3.621-5.453l1.59-1.578C129 45 129 45 131 45v-2Z" fill="#22170B"/><path d="M134 0c2.417-.027 4.833-.047 7.25-.063l2.066-.025C150.151-.12 150.151-.12 153 1l1 2 3.438.375L161 4c1.063 1.938 1.063 1.938 2 4 2.9 1.16 5.798 1.946 8.813 2.75L174 12c.75 2.772 1 5.142 1 8h3c1.036 5.05 1.103 9.874 1 15-2.106-.787-4.21-1.58-6.313-2.375l-3.55-1.336C166 30 166 30 163 28v-2h-9l-1-5-1.828-.113C143.37 20.245 143.37 20.245 140 17a141.588 141.588 0 0 0-7-5V9c1.624-.08 3.25-.14 4.875-.188l2.742-.105L143 9l2 3c1.948 1.002 1.948 1.002 4.125 1.688l2.195.761L153 15l-1-3c-1.977-.73-3.98-1.394-6-2l-3-2-2-.938c-2.093-1.111-3.373-2.361-5-4.062l-2-1V0Z" fill="#1A130A"/><path d="m129 104 1 13c-12.054 6.295-12.054 6.295-18 7v2a3212.237 3212.237 0 0 1-8.75 3.938l-2.5 1.13-2.422 1.084-2.222 1c-3.612 1.454-5.318 2.11-9.106.848v5h-7v6h-1v-9l-10-1 1-9 10 1 1-4v7h8l1-9h-2v-2l-4 3-1-2-2 2v-13h2v8h6l1-5h1l1 10 3-1v-2l6-1v-2c4.326-2.308 8.13-4.165 13-5l3-2 1.813-.375C122.58 107.548 125.085 104 129 104Z" fill="#5D4E27"/><path d="M148 120c8.397 1.225 16.763 2.62 25.125 4.063l3.09.528a38304355284.573 38304355284.573 0 0 0 5.54.96C184 126 184 126 187 127v2h-3v4l5 2-1 7c-7.75.125-7.75.125-10-1a356.654 356.654 0 0 0-8.438-.875c-6.983-.698-13.934-1.52-20.875-2.563l-2.366-.333c-4.57-.712-8.358-1.693-12.321-4.229-1.375-2.188-1.375-2.188-2-4 5.458-.111 10.615.083 16 1v-2l-10-1v-5l3-1v2h2l1 3 2 1v-5h2v-2Z" fill="#281B06"/><path d="M70 136h9l1 3c1.423-.03 1.423-.03 2.875-.063C86 139 86 139 88 140l-1 2 1 1c.04 1.666.043 3.334 0 5l-9 1-1 5 3-1v7c3.132-.898 3.132-.898 6-3l-3-1 3-1 1-2h5l-1-6 4 1v5h6l-1 2h3l1 4 1-5 4-1v4h3l1-5h4v3h-3l1 4 5 1-1.938 1.375c-2.159 1.464-2.159 1.464-3.062 3.625h10v3l-10-1-2 3h-3l-1 2v-4l-10-1 1-2-6-1 1.063 2.875C97 170 97 170 96 172h-3v-8l-3.688.563c-3.389.517-5.97.155-9.312-.563-2.824-.25-5.648-.439-8.477-.621C69 163 69 163 66 161l2-5h9v-7h-8c-1.514-4.845-.366-8.26 1-13Z" fill="#F7D374"/><path d="M158 169h12l-3 1c.308 1.647.621 3.292.938 4.938l.527 2.777c.312 2.238.312 2.238 1.535 3.285 2.333.04 4.667.042 7 0l-7-1-1-5h5l1 3h4v-2l4-1v3l4-1-3-1-1-6 1 2 2.875-.125c4.832-.02 9.431 1.067 14.125 2.125v-2l-2-1 9 1v2l9-2v3h-2v2l-6 2 6 1v2c-6.803 1.225-13.59 1.25-20.488 1.344l-1.979.027c-4.948.065-9.897.102-14.845.129l-2.186.014c-22.482.13-43.83-.9-65.502-7.514v-1c2.375-.054 4.75-.094 7.125-.125.665-.017 1.33-.034 2.016-.05 4.354-.043 7.815.575 11.859 2.175l1-3 5 1-1 3h9v-2l-3-1h5v-3h8v3h3l1-2 3-2h-4v-2Z" fill="#4F3C06"/><path d="M131 18a101.38 101.38 0 0 1 6 2l1 2c2.014.546 2.014.546 4.438.875 5.528.99 10.433 2.877 15.562 5.125v2l2.313.313c2.687.687 2.687.687 4 2.125 2.755 2.551 6.058 2.789 9.687 3.562v2l3 1v2h2v3c-4.067-.424-7.361-1.07-11.125-2.688-3.095-1.299-3.095-1.299-6.313-.437L159 42c-2.376-.158-4.666-.496-7.012-.906L150 41l-2 2v-5l-1.563-.313c-4.84-1.365-9.022-2.93-12.437-6.687l-3-1v2a165.859 165.859 0 0 1-5 5l-2.5 2.676-2.5 2.636-2.5 2.676C116 47 116 47 113.187 47.293L111 47v-5l-4 1c-.703-1.734-.703-1.734-1-4 1.328-2.14 1.328-2.14 3.25-4.25l1.89-2.14C113 31 113 31 116 31a108.817 108.817 0 0 1-1 7l-2 1v2h2v-2h2l1-3h2l.773-1.75c1.76-3.226 4.238-5.609 6.766-8.25 1.854-2.126 1.854-2.126 1.461-6h2v-2Z" fill="#090501"/><path d="M130 0h4v2l5 2v2l2.75.875c4.46 1.544 8.228 3.667 12.25 6.125l-1 3a301.162 301.162 0 0 1-4.438-1.813l-2.496-1.019C144 12 144 12 143 9l-2.188.563c-2.94.457-4.953.172-7.812-.563 1.239 3.717 2.835 4.214 6.21 5.938C141 16 141 16 142.446 17.566c1.981 1.827 3.414 1.98 6.055 2.372 4.108.779 5.083 1.656 7.5 5.062 2.327.374 4.661.708 7 1 .44.449.88.897 1.332 1.36 2.322 2.283 4.844 3.13 7.856 4.328l3.292 1.324L178 34l-.125-2.355C178 29 178 29 180 26.688L182 25l-.063 2.375c-.124 2.606-.124 2.606 1.063 4.625l-1 1.938c-1.35 2.174-1.35 2.174 0 5.062l-2 1c.599 2.352 1.27 4.686 2 7l2 1v3c-1.813.688-1.813.688-4 1a190.52 190.52 0 0 1-3-3c-1.809-1.02-1.809-1.02-3.793-1.824l-2.158-.928-2.237-.935-2.271-.971c-1.844-.787-3.692-1.565-5.541-2.342 1-2 1-2 4-3 2.086.742 2.086.742 4.375 1.875 3.214 1.52 6.065 2.666 9.625 3.125v-3h-2l-1.688-1.875c-2.9-2.665-5.52-3.25-9.312-4.125l-2 3-1-7-5-1v-2l-2.563-.313C152 27 152 27 148.563 25.5c-3.505-1.66-3.505-1.66-7.312-2-3.507-.54-3.99-1.025-6.25-3.5h-6l-1 3h-2l-3 6h-2l-1 2h-2c-.4-3.4-.03-4.946 1.625-8 1.836-2.319 3.253-3.83 5.5-5.625 2.582-2.133 3.739-3.308 4.875-6.375l-5 1V9h2l.375-2.813C128 3 128 3 130 0Z" fill="#0B0804"/><path d="M131 85c8.1 1.281 15.84 3.26 23.688 5.625l3.318.984c2.666.792 5.33 1.589 7.994 2.391l.375 2.938L167 100l2 1v-5l-2-1c12.727 1.364 12.727 1.364 18 4v2h-2v5h2v2c-17.832-3.609-17.832-3.609-26.563-6a469.672 469.672 0 0 0-17-4.313l-2.273-.556c-4.351-.992-7.776-1.409-12.164-.131-2.073 1.348-2.073 1.348-4 3a189.596 189.596 0 0 1-5.438 3.063l-2.808 1.535c-2.544 1.295-5.086 2.39-7.754 3.402 1.483-4.45 4.748-5.27 8.75-7.402 2.371-1.38 2.371-1.38 3.063-3.602.234-2.16.234-2.16.187-4.996 7.429-3.286 7.429-3.286 11-4v4h2l1-5h-2v-2Z" fill="#918158"/><path d="M134.813 79.805c4.251 1.594 8.588 2.58 13 3.632C172.501 89.502 172.501 89.502 176 93l3 2c-2.76 1.804-3.89 2.013-7.25 1.625L169 96v5l-3-1c-.75-1.938-.75-1.938-1-4l1-2c-.935-.23-1.87-.461-2.832-.7-10.75-2.665-21.463-5.46-32.168-8.3v2h2v6l-3-1v-4l-3.25 1.938c-2.045 1.182-3.554 2.022-5.875 2.5-3.834 1.15-6.275 4.505-8.188 7.874L112 102v-2c-1.463.762-2.92 1.535-4.375 2.313l-2.46 1.3c-2.433 1.355-2.433 1.355-4.165 4.387-2 0-2 0-5-1h2l-.313-2.688C98.11 99.847 99.686 98.978 103 96c4.58-3.703 9.37-7.136 14.128-10.605 1.557-1.16 3.069-2.38 4.567-3.614 4.885-3.852 7.355-4.263 13.118-1.976Z" fill="#1A1106"/><path d="M53 158h11v7l2.125-.563c3.214-.489 5.71-.1 8.875.563l-2 1v3h19l-3 1v2l2.21.332c3.599.546 7.195 1.106 10.79 1.668l1.996.309C117.43 176.4 130.709 179.149 144 182v1c-4.437.029-8.875.047-13.313.063l-3.826.025-3.662.01-3.38.016C117 183 117 183 114 182v-2l-3.75.063c-2.914.005-5.46-.133-8.25-1.063v-2l-2.375.625L97 178l-2-2c-2.655-.565-5.291-.738-8-1v-1l-3.25-.438C80 173 80 173 77.875 172.375c-1.954-.528-1.954-.528-4.188.188-3.615.588-6.255-.419-9.687-1.563v3l5-1 1 3h8v3l2 1c-4.797-.64-9.16-1.973-13.688-3.625l-2.189-.786c-2.377-.856-4.75-1.72-7.123-2.589l-2.644-.967A4230.884 4230.884 0 0 1 38 166v-2l10 1 2-6h1v6l10-1v-2h-9l1-4Z" fill="#9E8034"/><path d="m167 142 .438 2 .562 2 3 1v-5l1 3 3-2c5.345-.327 5.345-.327 8 1v5l2 1-3 1 4 1v9h-2l-1 2v-5l-5.957.098C175 158 175 158 172 157v-6h6v-2l-1.91-.146c-9.025-.75-17.935-2.104-26.883-3.481-11.353-1.686-19.611-1.645-30.644 1.627-1.957.564-3.914 1.127-5.872 1.688l-2.587.761C108 150 108 150 106 150v-5c1.905-.714 3.81-1.428 5.715-2.14a557.404 557.404 0 0 0 4.351-1.657l1.996-.766 1.786-.69C132.13 135.488 154.91 135.954 167 142Z" fill="#473B0D"/><path d="M131 111a1255.563 1255.563 0 0 1 39.313 7.188l2.024.4c1.906.377 3.81.76 5.714 1.142l3.333.67C184 121 184 121 186 122l1-2c1.913 3.316 2.45 6.225 3 10 .353 1.813.707 3.625 1.063 5.438.79 4.289 1.13 8.211.937 12.562h6v1l-5 1 6 1 1 6-1.75.75c-2.392 1.173-2.392 1.173-4.25 3.438L192 163c-2.125-.387-2.125-.387-4-1-.027-1.625-.046-3.25-.063-4.875l-.035-2.742C188 152 188 152 189 150l-6-1v-4l5-1-1-6h2v-3l-6-1 1-5h3v-2l-2.222-.33c-8.748-1.32-17.463-2.793-26.175-4.33-2.325-.409-4.65-.813-6.976-1.217-1.484-.26-2.968-.522-4.451-.783l-2.099-.363c-4.848-.863-4.848-.863-7.077-1.977v-2h-7v-5Z" fill="#3A3225"/><path d="M197 159h2v3h9c2 3 2 3 2 6h2c-.557 3.344-1.352 6.033-3 9h-2l-2-5h-4v2l-2.375-.125c-2.786-.162-2.786-.162-4.625 2.125v-3c-1.918.03-1.918.03-3.875.063-3.875.062-3.875.062-6.125-1.063 1.109 2.217 2.494 4.036 4 6h-5l-1-2h-3l1 3c-2.375.188-2.375.188-5 0l-2-3c-2.06-.724-2.06-.724-4-1v2l2 1-1 2h9c-2 2-2 2-5.5 2.25C170 182 170 182 168 180c-.972-3.359-1.107-5.678 0-9h4l2-2 1 3h2v-7l-1.688.563c-2.711.513-4.656.101-7.312-.563l2-1.375 2-1.625v-2l8 2v2l5 1 1-2 5 1 2-4 4 1v-2Z" fill="#8E7A38"/><path d="m146.563 97.813 2.342.533c2.367.543 4.731 1.096 7.095 1.654l2.174.513A592.186 592.186 0 0 1 172 104l3.852 1 3.585 1 3.184.875L185 108c.649 2.07.649 2.07 1 4-7.195-.55-14.09-1.726-21.125-3.313l-3.027-.668a586.495 586.495 0 0 1-21.473-5.222c-5.342-1.261-10.007-2.26-15.375-.797v2l-3.035 1.61-4.028 2.14-1.99 1.055c-3.311 1.761-6.585 3.56-9.818 5.46C103 116 103 116 101 116v2l-6 1v2l-4 2c-.366-4.512-.366-4.512 1.313-6.75C94 115 94 115 97 114l1.5-1.563C100 111 100 111 103 111l1-2a142.723 142.723 0 0 1 6.75-3.438c5.317-2.564 10.411-5.058 15-8.812 6.269-3.376 14.125-.486 20.813 1.063Z" fill="#191304"/><path d="M40 168c6.589.483 11.817 1.807 17.875 4.375C64.49 175.072 71.024 177.387 78 179v-3l-2.313.563C73 177 73 177 70 176l-1-2h-5v-3l2.012.254c4.592.53 8.458.915 12.988-.254l1 1c1.347.23 2.704.412 4.063.563L88 173v1l3.25.375c3.195.532 4.984 1.143 7.75 2.625h3v2l2.117-.035 2.758-.028 2.742-.035C112 179 112 179 114 180v2l3 1c-6.363.206-12.726.344-19.092.44-2.157.04-4.313.093-6.47.164-14.167.448-25.052-.667-37.57-7.579-2.946-1.617-5.972-3.056-8.993-4.525A848.286 848.286 0 0 1 40 169v-1Z" fill="#5B3E0A"/><path d="m151 145 1 9-2 1c-1.134 2.017-1.134 2.017-2 4l-1-7-3 1v4l-12-1v4h-3v-3l-7 1v-4l3-1v-2h-4l-.438 3.375C120 158 120 158 119 160l-4-1v-4h3v-3c-2.437.27-2.437.27-5 1l-2 3v-5h2l.559-1.86c2.123-3.153 4.982-3.558 8.504-4.39l2.063-.51c9.468-2.222 17.401-1.035 26.874.76Z" fill="#E7C15D"/><path d="m129 37 1.977.621C135.635 39.057 140.15 40.362 145 41v2c1.455.53 2.914 1.049 4.375 1.563l2.46.878c2.193.819 2.193.819 4.165-.441v3l3.563.813C163.643 49.85 167.27 51.02 171 53c.938 2.188.938 2.188 1 4h-3v5l2 1-5-1-1-3c-2.556-3.408-6.153-4.476-10-6v-2l-1.695-.48C145.75 48.322 138.388 45.693 131 43v2c-1.968 1.86-4.056 3.534-6.152 5.246C122.752 51.96 122.752 51.96 122 55l-3 1-1 5-1-3-3.313 2c-2.624 1.585-3.513 2-6.687 2v-2h2l.188-2.188c1.058-3.664 3.038-5.37 5.812-7.812l2.414-2.176c1.723-1.552 3.45-3.1 5.184-4.64A156.225 156.225 0 0 0 129 37Z" fill="#0F0A05"/><path d="M26 163c6.707 1.951 12.827 4.719 19.107 7.727a622.535 622.535 0 0 0 16.956 7.773l2.4 1.061c1.845.815 3.69 1.627 5.537 2.439v1H32v-2l-3-1h2l-2-3c-.096-2.342.065-4.604.223-6.941L29 168l-3-2v-3Z" fill="#FCE096"/><path d="M72 95c1.48.14 2.959.288 4.438.438l2.496.246C81 96 81 96 82 97c.087 1.635.107 3.273.098 4.91l-.01 2.998-.025 3.154-.014 3.167c-.012 2.59-.028 5.18-.049 7.771 3 1.333 3 1.333 6 0v2h2l-1 9h-8l-1-3-3.313.188C73 127 73 127 71.26 125.903c-1.914-2.89-1.399-5.127-1.115-8.54l.302-3.935.365-4.115c.112-1.384.222-2.767.33-4.15.272-3.39.559-6.777.858-10.163Z" fill="#AD9356"/><path d="m66 151 1 4h7v-2h-6v-1h9v4h-9l-1 5c2.544 1.272 4.666 1.291 7.5 1.5 5.278.389 5.278.389 7.5 1.5l1-2v2c3.964.076 7.127-.032 11-1l-1 9h3l-1-8h10l-4 2 10 1v3c2.917.167 2.917.167 6 0l2-2v2h7v3h-2v2c-12.07 1.682-23.29.398-35-3l-1-1h-2.438C83 171 83 171 81 170c-2.658-.432-5.323-.698-8-1v-3l-9-1 2-14Z" fill="#DDB75F"/><path d="m111 86 1 4c-4.578 3.745-4.578 3.745-6.82 5.098-3.736 2.305-5.541 3.855-6.618 8.215L98 107l2.3-1.277 3.013-1.66 2.988-1.653C109 101 109 101 112 100l2.5-2.5C117 95 117 95 120 94c-.309 3.187-.553 4.605-2.996 6.766l-2.442 1.484-2.433 1.516A75.998 75.998 0 0 1 108 106l-1 3h-3l-1 3h-4l-2 3h-3l-1 3-10-1v-9c1.454.03 1.454.03 2.938.063 2.937.293 2.937.293 4.062-1.063l-7-1v-1l9 1c-3.087-3.087-3.92-3.449-8-4v-5c3.375-.188 3.375-.188 7 0l2 3 1.582-1.707c2.82-2.674 5.89-4.82 9.106-6.98 3.835-2.438 3.835-2.438 7.312-5.313Z" fill="#62542F"/><path d="M134 0c2.417-.027 4.833-.047 7.25-.063l2.066-.025C150.151-.12 150.151-.12 153 1l1 2c2.527.656 2.527.656 5 1l2 9h2v2c-5.75.125-5.75.125-8-1 .781 2.496.781 2.496 2 5l3 1c.688 2.063.688 2.063 1 4-2.753-.592-5.502-1.198-8.25-1.813l-2.355-.501C146.27 20.75 143.187 19.943 140 17a141.588 141.588 0 0 0-7-5V9c1.624-.08 3.25-.14 4.875-.188l2.742-.105L143 9l2 3c1.948 1.002 1.948 1.002 4.125 1.688l2.195.761L153 15l-1-3c-1.977-.73-3.98-1.394-6-2l-3-2-2-.938c-2.093-1.111-3.373-2.361-5-4.062l-2-1V0Z" fill="#383221"/><path d="m151.625 70.625 2.754.984c2.21.791 4.416 1.588 6.621 2.391l1-2v3l2.617.371c4.379.814 8.393 2.293 12.578 3.79 2.956 1.03 2.956 1.03 6.805.839l-1 5c-8.606-1.273-16.633-3.63-24.875-6.375-2.372-.78-4.745-1.558-7.117-2.336l-3.487-1.147C142.034 73.362 136.519 71.675 131 70l1 7h-2v-4l-1.563 1.313c-2.985 2.066-6.084 3.31-9.437 4.687-1.34.653-2.677 1.312-4 2v-2l-2-1c1.396-3.375 2.86-5.116 6-7 1.658-.373 3.326-.707 5-1 2.234-.99 2.234-.99 4-2v-2c7.422-2.474 16.585 2.06 23.625 4.625Z" fill="#110B04"/><path d="M274 172h1v11h-47v-6c7.025-1.537 13.824-2.13 21-2 8.37.082 16.656-.371 25-1v-2Z" fill="#F4D381"/><path d="M130 111v6a668.25 668.25 0 0 1-5.625 2.938l-3.164 1.652c-3.135 1.377-5.826 2.008-9.211 2.41v2a3212.237 3212.237 0 0 1-8.75 3.938l-2.5 1.13-2.422 1.084-2.222 1c-3.612 1.454-5.318 2.11-9.106.848v5h-7v6h-1v-9l-10-1 1-9 10 1 1-4v7c5.235.756 9.773 1.206 15 0v-2c1.6-.84 3.205-1.672 4.813-2.5l2.707-1.406C106 123 106 123 109 123v-2l7.113-3.555a1470.6 1470.6 0 0 0 5.742-2.89l2.707-1.368 2.504-1.269C129 111 129 111 130 111Z" fill="#281B07"/><path d="m183 170 1 2 2.875-.125c4.832-.02 9.431 1.067 14.125 2.125v-2l-2-1 9 1v2l9-2v3h-2v2l-6 2 6 1v2c-5.336.892-10.47 1.157-15.875 1.125l-2.4-.006c-5.31-.04-10.464-.367-15.725-1.119h-2v-2h-9l-1-5h5l1 3h4v-2l4-1v3l4-1-3-1-1-6Z" fill="#796620"/><path d="M84 88v4h7l1 4h-2v-2h-7l1 8h5l1 3 3 1c-2 1-2 1-3 1l-1 2h-7l-1-12-9-2 .035 2.195c.047 5.053.039 9.839-1.035 14.805l-2-2c.033-3.38.57-6.64 1-10H60l-1 4h-2l.621-2.012.816-2.675.81-2.637C59.962 94.13 60.516 91.6 61 89c16.073-3.31 16.073-3.31 23-1Z" fill="#4E4122"/><path d="M275 152c.029 3.292.047 6.583.063 9.875l.025 2.84.01 2.715.016 2.507C275 172 275 172 274 174c-4 1-4 1-13 1l-3-21c12.5-2 12.5-2 17-2Z" fill="#D2B36D"/><path d="M57 105c2.301 3.452 2.138 4.235 1.625 8.188l-.336 2.73L58 118l-1-2h-2l-1 19 2-4v2l6-2-3-2h9v-8h1c.097 6.115-.23 11.933-1 18l-12-1-2 3h-2l1 3c-.34 1.902-.34 1.902-.938 3.938C51.196 150.917 51 152.766 51 156h-3v-38h2v-6l6-1-.063-2.438C56 106 56 106 57 105Z" fill="#5B4835"/><path d="M131 43c5.423.646 10.142 2.395 15.188 4.375l2.443.922 2.35.914 2.121.822c2.07 1.055 3.292 2.31 4.898 3.967 2.6 1.19 2.6 1.19 5 2v2l3 1v3h3v-5l7 2v2l3 1 .375 2.438L180 67l2 1c-9.697-1.94-18.994-4.906-28-9v-2l-4-2v-5h-2v4c-5.247-.82-10.257-2.628-15-5l-1-3-1.438 2.563c-2.934 4.47-7.28 7.344-11.562 10.437l-1-3 4-1 .316-1.797c.785-2.527 1.735-3.626 3.621-5.453l1.59-1.578C129 45 129 45 131 45v-2Z" fill="#564825"/><path d="M130 0h4v2l5 2v2l2.75.875c4.46 1.544 8.228 3.667 12.25 6.125l-1 3a301.162 301.162 0 0 1-4.438-1.813l-2.496-1.019C144 12 144 12 143 9l-2.188.563c-2.94.457-4.953.172-7.812-.563 1.135 3.405 1.553 3.6 4.563 5.188L141 16l-.563 2.375c-.697 2.596-.697 2.596.563 4.625-2.867-.573-3.861-.861-6-3h-6l-1 3h-2l-3 6h-2l-1 2h-2c-.4-3.4-.03-4.946 1.625-8 1.836-2.319 3.253-3.83 5.5-5.625 2.582-2.133 3.739-3.308 4.875-6.375l-5 1V9h2l.375-2.813C128 3 128 3 130 0Z" fill="#171208"/><path d="m218 143 6 2-.563 1.75c-.606 2.231-.606 2.231.125 4.313L224 153l-2 3h2v4l-7 1-1-3v12c-2.875-.688-2.875-.688-6-2-1.375-2.625-1.375-2.625-2-5h-4c-1.672-.304-3.34-.631-5-1v-3h-2v2l-2-1 2-4v2l14 1v-6h-3v-2h2v-7l3.438.063c3.378.353 3.378.353 4.562-1.063Z" fill="#2D2E35"/><path d="M131 30c2.962.613 4.38 1.254 7 3a487.27 487.27 0 0 0 7.82 3.684C148 38 148 38 149 41l1-1c6.176-.334 11.236 1.77 16.938 3.938l2.13.802A491.256 491.256 0 0 1 180 49l-2 1v3c-1.627-.45-3.252-.91-4.875-1.375l-2.742-.773C168 50 168 50 166 48l-1 2 2 1c-7.34-1.319-14.102-3.436-20.375-7.563-3.538-1.937-7.195-2.744-11.102-3.69C133 39 133 39 130 37c-1.188-2.625-1.188-2.625-2-5h3v-2Z" fill="#453D23"/><path d="M70 136h9l1 3c1.423-.03 1.423-.03 2.875-.063C86 139 86 139 88 140l-1 2 1 1c.04 1.666.043 3.334 0 5l-9 1-1 5 3-1v2h-3v3h-2l1 5-3.813.125-2.144.07C69 163 69 163 66 161l2-5h9v-7h-8c-1.514-4.845-.366-8.26 1-13Z" fill="#AE9249"/><path d="M149 121c6.472-.194 12.143.42 18.438 1.875l4.984 1.102 2.385.536c4.05.9 8.122 1.686 12.193 2.487v2h-3v4l4 2v2l-10-2 4-1v-3h-2v-2l-3-1-1 4-1-5-4 1v-2h-5v5l11 2v2c-9.594-.47-18.642-1.942-28-4v-2h5v-4h-2c-1.625-2-1.625-2-3-4Z" fill="#AF9D64"/><path d="M69 165h6l-2 1v3h19l-3 1v2l2.21.332c3.599.546 7.195 1.106 10.79 1.668l1.996.309C117.43 176.4 130.709 179.149 144 182v1c-4.437.029-8.875.047-13.313.063l-3.826.025-3.662.01-3.38.016C117 183 117 183 114 182v-2l-3.75.063c-2.914.005-5.46-.133-8.25-1.063v-2l-2.375.625L97 178l-2-2c-2.655-.565-5.291-.738-8-1v-1l-3.25-.438C80 173 80 173 77.812 172.375c-2.21-.457-3.685-.059-5.812.625l1-3h-4v-5Z" fill="#F8DB97"/><path d="M127 166c24.454-.273 24.454-.273 31 3v2h4l-2 5-5-1v-3h-8v3l-2 1v2h-9v-2l-4-1-1 2-6-1 3-1-.5-2.813C127 169 127 169 127 166Z" fill="#EDC468"/><path d="M133 59c4.195.6 8.01 1.575 12 3v2h3l.313 1.938L149 68l3 1 1-4h5v2l6 2v4l4 1v-5l1 2c2.527.656 2.527.656 5 1v3l5-2 2 6h2v2c-7.226-1.445-14.039-3.603-21-6-6.828-2.312-13.69-4.51-20.563-6.688l-3.056-.97L131 65l1-2c.352-1.329.688-2.662 1-4Z" fill="#6A5A36"/><path d="m270 136 5 1v14c-4.249.697-8.499 1.383-12.75 2.063l-3.656.603-3.516.557-3.237.523c-2.64.236-4.355.096-6.841-.746v-4l2-1c.656-2.527.656-2.527 1-5 4.054-.071 7.733-.04 11.75.563 3.02.406 4.446.372 7.25-.563a532.43 532.43 0 0 1 5-1v-4l-4-1 2-2Z" fill="#30312E"/><path d="M131 111c17.126 2.794 34.059 6.257 51 10l1 4c-36.15-2.575-36.15-2.575-45-7v-2h-7v-5Z" fill="#271B08"/><path d="m69 100-1 12h-2l-1-4-2 1h2v2l-3 1h3v3h2v13h-3l1-7h-2v6h-2l-1-2-1 2h-2c-.31-8.846.185-18.556 3-27 3.069-1.534 5.7-.55 9 0Z" fill="#C9B374"/><path d="M133 52c6.68.774 12.746 3.325 19.008 5.648l2.633.954 2.391.885c2.025.759 2.025.759 3.968-.487v3l3.875.75c6.94 1.546 13.538 3.762 19.125 8.25l-1 3-2.594-.926a8791.124 8791.124 0 0 0-6.08-2.159c-5.49-1.94-10.995-3.825-16.51-5.692l-6.556-2.228c-1.466-.497-2.932-.992-4.4-1.484-2.089-.702-4.176-1.41-6.262-2.12l-3.703-1.25C134 57 134 57 132 55l1-3Z" fill="#0F0803"/><path d="m148 120 3 1c.688 2.063.688 2.063 1 4h2v4h-5v2l8 1 1 4c-9.127 1.126-17.247 1.873-25-4l-1-3c5.458-.111 10.615.083 16 1v-2l-10-1v-5l3-1v2h2l1 3 2 1v-5h2v-2Z" fill="#43340F"/><path d="M119 67h2v4c-3.214 3-3.214 3-6 3-.934 3.01-1.044 3.867 0 7l1.39-1.094 1.86-1.406 1.828-1.406C122 76 122 76 126 76l1 4c-2.124 1.48-4.25 2.96-6.375 4.438l-1.828 1.275c-4.57 3.174-4.57 3.174-6.797 4.287V80l-2.188 1.313a163.212 163.212 0 0 1-5.312 3.062c-2.678 1.61-2.678 1.61-5.125 4.313C97 91 97 91 94 91c.523-4.005 2.397-5.648 5.375-8.25l2.398-2.14C104 79 104 79 107 79l1-3a392.898 392.898 0 0 1 5-3 140.693 140.693 0 0 0 5-5l1-1Z" fill="#41361B"/><path d="m243 151 1.212 1.523c1.677 1.693 1.677 1.693 3.93 1.542l2.463-.428 2.733-.44 2.85-.51c6.362-1.081 12.35-1.892 18.812-1.687-4.315 2.312-7.857 3.134-12.75 3.063l-2.422-.028L258 154l.438 1.723c1.177 4.9 1.776 9.242 1.562 14.277h-9c-1.041-3.313-1.186-4.602.313-7.813L253 160h2v-2c-2.333-.042-4.667-.04-7 0l-1 1c-1 1-1 1-3.5 1.125C241 160 241 160 240 159c-.04-2.333-.042-4.667 0-7l3-1Z" fill="#362C24"/><path d="m153 149 17 1c.977 7.617.977 7.617 1 10l-2 2-1.375-2.938c-1.283-3.133-1.283-3.133-3.625-4.062-1.158 4.054-.837 6.218 1 10h-7v-2h-3v-3l-4-1 2-10Z" fill="#8D6E12"/><path d="M134 28v2h-3v2a165.859 165.859 0 0 1-5 5l-2.5 2.676-2.5 2.636-2.5 2.676C116 47 116 47 113.187 47.293L111 47v-5l-4 1c-.703-1.734-.703-1.734-1-4 1.328-2.14 1.328-2.14 3.25-4.25l1.89-2.14C113 31 113 31 116 31a108.817 108.817 0 0 1-1 7l-2 1v2h2v-2h2l1-3h2l.75-1.75c3.26-5.868 6.735-7.835 13.25-6.25Z" fill="#171008"/><path d="m143 140 1 3-2.29.008c-11.065.389-21.125 3.31-31.686 6.457C108 150 108 150 106 150v-5c1.905-.714 3.81-1.428 5.715-2.14a557.404 557.404 0 0 0 4.351-1.657c9.512-3.648 17.5-6.297 26.934-1.203Z" fill="#48340B"/><path d="M195 165v2l11 1 1-2h3v2h2c-.557 3.344-1.352 6.033-3 9h-2l-2-5h-4v2l-2.375-.125c-2.786-.162-2.786-.162-4.625 2.125v-3l-3.625.063c-3.559.006-6.873-.396-10.375-1.063h-2l1-6 2.555.035 3.32.028 3.305.035c2.653-.092 4.26-1.098 6.82-1.098Z" fill="#D7C281"/><path d="M51 174c2.043.767 4.084 1.539 6.125 2.313l3.445 1.3c3.241 1.31 6.328 2.78 9.43 4.387v1H37c-1-6-1-6 0-8l14 1v-2Z" fill="#F7DA8D"/><path d="M133 79v1l-2.688.875L127 82l-2.813.938L122 84l-1 3a749.534 749.534 0 0 1-6 4v2h3c-1.75 3.875-1.75 3.875-4 5-1.134 2.017-1.134 2.017-2 4v-2c-1.463.762-2.92 1.535-4.375 2.313l-2.46 1.3c-2.433 1.355-2.433 1.355-4.165 4.387-2 0-2 0-5-1h2l-.313-2.688C98.11 99.847 99.686 98.978 103 96c2.534-2.048 5.13-4.002 7.75-5.938l2.15-1.59c1.4-1.032 2.802-2.06 4.206-3.086a550.847 550.847 0 0 0 4.765-3.534l2.317-1.665 1.917-1.394c2.58-1.08 4.257-.536 6.895.207Z" fill="#3C3016"/><path d="m82.125 171.938 3.32.59L88 173v1l3.25.375c3.195.532 4.984 1.143 7.75 2.625h3v2l2.117-.035 2.758-.028 2.742-.035C112 179 112 179 114 180v2l3 1c-4.378.05-8.756.086-13.135.11-1.49.01-2.98.024-4.47.04-2.14.025-4.279.036-6.418.045l-3.904.032C86 183 86 183 84 181c1-2 1-2 4-3l-14-4v-2c2.91-1.455 4.958-.635 8.125-.063Z" fill="#B19549"/><path d="M130 128v6c-3.135 1.858-5.375 2.201-9 2v2l-2.492.734c-5.425 1.63-10.734 3.288-15.945 5.516-3.666 1.53-6.536 2.174-10.563 1.75v-3c8.053-3.548 16.139-6.884 24.404-9.907 3.208-1.177 6.374-2.407 9.506-3.769C129 128 129 128 130 128Z" fill="#3C2C0B"/><path d="M139 143v1h-8v16h-2v-3l-7 1v-4l3-1v-2h-4l-.438 3.375C120 158 120 158 119 160l-4-1v-4h3v-3c-2.437.27-2.437.27-5 1l-2 3v-5h2l.559-1.86c2.124-3.154 4.982-3.556 8.504-4.39l2.037-.515c5.116-1.221 9.676-1.602 14.9-1.235Z" fill="#B89924"/><path d="M66 139h1v10h10v3l-3 1v2h-7l-2 7-1-4h-8v-3h4l-4-1v-3h-3v-6l1 4c1.482-.254 2.96-.53 4.438-.813l2.496-.457L63 147l1-3H54l1-2h10l1-3Z" fill="#624C19"/><path d="m133 21 2.207.45c1.702.335 3.407.654 5.117.945C146.591 23.503 152.18 25.448 158 28v2l5 1 1 7c-4.677-.58-8.423-1.884-12.688-3.875l-3.386-1.555c-2.583-1.386-3.94-2.522-5.926-4.57-2.26-1.205-2.26-1.205-4.688-2.188l-2.449-1.042L133 24v-3Z" fill="#382E15"/><path d="M131 70c5.398 1.15 10.71 2.424 16 4v4h2v5h3v2c-6.703-1.127-12.943-2.884-19.336-5.195-2.838-.998-2.838-.998-6.664-.805l1-5 3-1v4h2l-1-7Z" fill="#766532"/><path d="m111 79 3 2c-1.366 4.47-3.311 6.233-7 9l-2 3h-2a63.17 63.17 0 0 0-3.5 2.5C96.222 98 96.222 98 94 98l-1 5h-1l-1-5h-8v-4h7v2h2l1-7 1 2h3l1-3c3.756-3.528 7.705-6.669 13-7v-2Z" fill="#2B220C"/><path d="m123 150 3 1-1 3h-3v4l7-1v3h2l1 6-4 1v8h-4v-2h2v-3c-3.417-.167-3.417-.167-7 0l-2 2v-2l-3-1 1-1-2-2c1.416-.054 2.833-.093 4.25-.125l2.39-.07c2.567.212 4.152.908 6.36 2.195v-3h-10v-4l3-1-1-2h2l.375-3.438L121 151l2-1Z" fill="#F1C974"/><path d="M80 123h1v7c1.436.196 2.874.381 4.313.563l2.425.316c2.43.269 2.43.269 5.262-.879v2l3 1c-3 2-3 2-6.188 1.625L87 134v5h-7v6h-1v-9l-10-1 1-9 10 1v-4Z" fill="#382705"/><path d="M128 11h2c-.813 2.438-.813 2.438-2 5l-3 1-1 3h-2c-1.491 3.622-2.787 7.276-4 11 2.053-1.842 2.053-1.842 3-4h2l1.375-2.5L126 22h4c-1.263 4.633-3.88 7.08-7.254 10.285-1.938 1.831-1.938 1.831-4.058 4.653L117 39h-2v2l-3 1 1-4h2l1-7c-3.984 2.163-6.89 4.712-10 8l1-4h2l1-4h2l.313-1.813c.776-2.47 1.758-3.51 3.687-5.187h-2l1-3 4 2 2-4h2l1-4h3l1-4Z" fill="#2C2417"/><path d="M143 106h3c2.139 2.139 2.427 3.133 3 6l7 1v-4l4 1v5l2.309.367c6.286 1.02 12.489 2.186 18.691 3.633v-6l-2-1 7 1v2h-2l2 7c-16.788-2.87-33.436-6.028-50-10v-2l7 1v-5Z" fill="#B2A067"/><path d="m106 49 3 3-2 3h-2l-1 4h-2l-1 3h-2l-1 3h-2l-2 7 2 1-4 2c-1.063-1.875-1.063-1.875-2-4l1-2h-2c-1.141-3.995-1.235-5.54.688-9.313C92 57 92 57 94.25 56.126L96 56l1 2 2.25-2.25L106 49Z" fill="#131413"/><path d="M130 134c23.79 2.88 23.79 2.88 33.414 4.602 3.874.596 7.765.83 11.672 1.113 4.376.428 8.63 1.309 12.914 2.285v2c-4.284 1.168-7.648.633-12 0-2.299.195-2.299.195-4 1l-1 2-4-1v-4l-2.75-.351a20408.096 20408.096 0 0 1-14.553-1.865l-6.33-.811-3.84-.492A269.103 269.103 0 0 1 130 137v-3Z" fill="#D4BC7F"/><path d="M73 96h8c1.743 1.743 1.214 4.067 1.25 6.438-.029 5.964-1.181 10.997-3.25 16.562l-1-2-3 1v-12l-1 7h-2l1-17Z" fill="#E4CA88"/><path d="m184 95 2 1v7h6l-.563 3.25c-.383 3.287-.224 4.715.563 7.75l-2 2 2 1v16l-1-4-3-1 .063-2.313c.066-2.789.066-2.789-1.063-5.687l-3-1v-4h2v-2l-2-1 1-1c.04-1.666.043-3.334 0-5h-2v-5h2v-2l-2-1 1-3Z" fill="#23221D"/><path d="M81 109h2v8h6l1-5h1l1 10 3-1v-2l5 1c.875 2.688.875 2.688 1 6-3.207 3.608-5.002 4.746-9.688 5.938C88 132 88 132 85 130h4l1-9h-2v-2l-4 3-1-2-2 2v-13Z" fill="#68552C"/><path d="M130 34c-.576 3.568-1.87 5.252-4.438 7.75l-1.87 1.86C122 45 122 45 120 45l-.688 1.688C116.621 51.43 112.733 54.43 108 57l1-5c-2.118-1.118-2.118-1.118-5-2l-.75 1.875c-1.478 2.512-2.69 2.886-5.25 4.125l-1 3-1-3 3-1 1-3h2l1-3h2l.313-1.813c.785-2.5 1.656-3.562 3.687-5.187h2v5c5.252-1.29 8.183-3.732 11.75-7.625C127.762 34 127.762 34 130 34Z" fill="#191205"/><path d="m92 147 4 1v5h6l-1 2h3l1 4 4 1h-4l-1 3v-2l-2.23.035-2.957.028-2.918.035c-2.75-.093-5.22-.477-7.895-1.098l-1 2-3-3 3-2-3-1 3-1 1-2h5l-1-6Z" fill="#F1D76D"/><path d="m132 174 5 1-1 3h8v1l17 1v2l-2.938-.063c-2.937-.293-2.937-.293-4.062 1.063-9.524.676-18.38-1.492-27.625-3.5a4193.17 4193.17 0 0 0-4.777-1.012c-3.869-.819-7.734-1.65-11.598-2.488v-1c2.375-.054 4.75-.094 7.125-.125.665-.017 1.33-.034 2.016-.05 4.354-.043 7.815.575 11.859 2.175l1-3Z" fill="#654A0E"/><path d="m66 151 1 4h7v-2h-6v-1h9v4h-9l-1 5c2.544 1.272 4.666 1.291 7.5 1.5 5.278.389 5.278.389 7.5 1.5l1-2v2h9v4h-3v-2h-2v2l-14 1v-3l-9-1 2-14Z" fill="#B28E31"/><path d="M127.188-.25 130 0l-3 9h-2v3h2v3l-3 1-1 3c-1.75 2.25-1.75 2.25-4 4-2.75-.25-2.75-.25-5-1v-2h2l.813-2.438L118 15l3-1v-4l-2 3-2-1C122.689.103 122.689.103 127.188-.25Z" fill="#1E170D"/><path d="m8 166 3 3c2.233.11 2.233.11 4.563-.375 4.26-.714 4.26-.714 6.437.375l-1 6H0v-5l8-4Z" fill="#988C77"/><path d="M131 117c5.853.515 11.33 1.454 17 3v2h-2v5l-3-1v-3h-4l-1 4 10 1v2c-2.459-.14-4.917-.287-7.375-.438l-2.117-.119c-5.281-.33-5.281-.33-7.508-1.443v-2l2-1v-6h-2v-2Z" fill="#CDB774"/><path d="M133 59c4.195.6 8.01 1.575 12 3v2h3l1 4 10 1v2h2v3c-6.611-1.558-13.038-3.539-19.5-5.625l-3.07-.984c-2.478-.795-4.954-1.592-7.43-2.391l1-2c.352-1.329.688-2.662 1-4Z" fill="#6A5A2E"/><path d="m155 45 1 3c1.921.53 3.847 1.049 5.793 1.477 3.373.8 6.134 1.893 9.207 3.523.938 2.188.938 2.188 1 4h-3v5l2 1-5-1-1-3c-2.556-3.408-6.153-4.476-10-6v-2l-4-1c.313-1.938.313-1.938 1-4l3-1Z" fill="#0B0801"/><path d="M180 145h3v4l2 1-3 1 4 1v9h-2l-1 2v-5l-5.957.098C175 158 175 158 172 157v-6h6v-2h-5v-1h7v-3Z" fill="#775E13"/><path d="m61.75 137.375 2.984.336L67 138l-1 5-2.371-.035-3.066-.028-3.06-.035c-2.443-.188-2.443-.188-3.503 1.098h10l1 4-2.371.148-3.066.227c-1.01.07-2.02.14-3.06.21L54 149l-1 2h3v2l-4-1-1 2c-.177-10.095-.177-10.095 1-15 3.257-2.353 5.87-2.087 9.75-1.625Z" fill="#89743E"/><path d="M118 105c-1.485 4.027-3.64 5.24-7.375 7.188l-2.898 1.542c-2.282 1.063-4.271 1.787-6.727 2.27v2l-6 1v2l-4 2c-.366-4.512-.366-4.512 1.313-6.75C94 115 94 115 97 114l1.5-1.563C100 111 100 111 103 111l1-2c2.145-1.324 2.145-1.324 4.813-2.688l2.644-1.386c2.75-1.002 3.858-.959 6.543.074Z" fill="#241807"/><path d="m199 171 9 1v2l9-2v3h-2v2l-6 2 6 1v2l-13 1-1-3h3v-2h-5l2-6-2-1Z" fill="#876F1C"/><path d="M57 105c2.301 3.452 2.138 4.235 1.625 8.188l-.336 2.73L58 118l-1-2h-2l-1 13c-4 1-4 1-6 1v-12h2v-6l6-1-.063-2.438C56 106 56 106 57 105Z" fill="#423A30"/><path d="M110 66c1.063 1.875 1.063 1.875 2 4l-1 2h3l-1 3-3-1-1 3c-1.672 1.465-1.672 1.465-3.75 2.938-2.448 1.759-4.798 3.514-7.125 5.437C96 87 96 87 94 87v-2l-2-1 3-1 1-3 3-2 1.563-2.125L102 74h2l.75-1.75c1.417-2.55 3.126-4.268 5.25-6.25Z" fill="#1E1505"/><path d="M130 88v4l2 1 1 2-3.055 1.246c-3.87 1.659-7.451 3.673-11.07 5.817-3.861 2.282-7.646 4.397-11.875 5.937 1.483-4.45 4.748-5.27 8.75-7.402 2.371-1.38 2.371-1.38 3.063-3.602.234-2.16.234-2.16.187-4.996l3.375-1.438C128.32 88 128.32 88 130 88Z" fill="#4E411F"/><path d="M149 121h9c3 6.625 3 6.625 3 10l16 2v2c-9.594-.47-18.642-1.942-28-4v-2h5v-4h-2c-1.625-2-1.625-2-3-4Z" fill="#CAB47B"/><path d="m175.438 83.25 2.308.266c2.348.504 4.162 1.321 6.254 2.484v8c-5.114-1.068-10.072-2.231-15-4l-1-5c3.27-2.18 3.764-2.22 7.438-1.75Z" fill="#726A3F"/><path d="M211 155h4l1 15c-6-2-6-2-7.375-4.625L208 163h-4c-1.672-.304-3.34-.631-5-1v-3h-2v2l-2-1 2-4v2l14 1v-4Z" fill="#3C383D"/><path d="M133 9c1.624-.08 3.25-.14 4.875-.188l2.742-.105L143 9l2 3c2.176 1.222 2.176 1.222 4.625 2.188l2.477 1.042L154 16v1h-5v4l-9-3v-2l-7-4V9Z" fill="#231E12"/><path d="m119 94 1 4c-1.247.962-2.498 1.92-3.75 2.875l-2.11 1.617C112 104 112 104 109.798 105.008c-2.15.922-2.15.922-2.797 3.992h-3l-1 3-5-1-1 2c-2.063.625-2.063.625-4 1v-3c3-2 3-2 6-2l1-3c2.215-1.605 2.215-1.605 4.938-3.188l2.714-1.605C110 100 110 100 112 100a282.832 282.832 0 0 0 5-5l2-1Z" fill="#B7AA7D"/><path d="M236 144c1.938.688 1.938.688 4 2 .75 2.625.75 2.625 1 5l-3 1v-4h-2c-.043 2-.04 4 0 6l1 1c.931 3.957 1.448 7.975 2 12h-6c-1.628-3.257-1.268-6.8-1.313-10.375l-.087-2.328c-.065-5.713-.065-5.713 2.42-8.836L236 144Z" fill="#322C30"/><path d="M167 95c12.727 1.364 12.727 1.364 18 4v2h-2v5h2v2l-11-3v-1h6l-8-2v-2h-3v-4l-2-1Z" fill="#8B774D"/><path d="M0 179h28v4H0v-4Z" fill="#160F00"/><path d="M190 141h2v7h6v1l-5 1 6 1 1 6-4 2v1h-5l-1-5h2c-.703-2.51-.703-2.51-2-5-2.041-.887-2.041-.887-4-1v-4h3l1-4Z" fill="#333237"/><path d="M50 152c5.055.778 10.017 1.86 15 3v1h-9v2h-3l-1 4h9v2l-10 1-1-3-1 5-1-2c-2.025-.652-2.025-.652-4-1v-3l4-1 .438-1.75L50 152Z" fill="#7A6128"/><path d="M134 0h14l1 3c1.997 1.685 1.997 1.685 4 3h-3v4l3 1c-6.625-.75-6.625-.75-10-3l-2-.938c-2.093-1.111-3.373-2.361-5-4.062l-2-1V0Z" fill="#322919"/><path d="m133 147 16 1v11c-2-3-2-3-2-7h-4v2h-10v-7Z" fill="#977619"/><path d="M160 109c1.5 1.375 1.5 1.375 3 3v2h2v-4l7 1v3h2c1.625 1.5 1.625 1.5 3 3l-1-5 6-1-1 2c-.04 2-.043 4 0 6-7.236-.603-13.994-2.115-21-4v-6Z" fill="#645019"/><path d="M161 42c6.612 1.822 12.805 4.052 19 7l-2 1v3c-1.627-.45-3.252-.91-4.875-1.375l-2.742-.773C168 50 168 50 166 48l-1 2 2 1c-1.46-.282-2.918-.576-4.375-.875l-2.46-.492C158 49 158 49 156 47l2-3v2l4 1-1-5Z" fill="#3D331A"/><path d="M243 166h7l1 3 9 1 1-2v7c-3.763 1.254-7.272 1.107-11.188 1.063l-2.271-.014c-1.847-.012-3.694-.03-5.541-.049v-1l5-1-1-3c1.438-2.188 1.438-2.188 3-4h-6v-1Z" fill="#7E672E"/><path d="M115 58h2c.25 2.313.25 2.313 0 5-1.992 1.919-4.08 3.044-6.5 4.375-2.832 1.841-4.43 3.985-6.5 6.625h-2l-.688 2.438L100 79c-2.625.813-2.625.813-5 1v-4h2v-2c4.47-4 4.47-4 7-4l1-3c1.777-1.754 1.777-1.754 3.938-3.563C111.032 61.67 113.06 59.94 115 58Z" fill="#A39C80"/><path d="M228 177c2.959-.08 5.916-.14 8.875-.188l2.55-.076 2.442-.029 2.254-.048L246 177l2 3c-4.67 2.738-7.988 3.34-13.375 3.188l-3.773-.083L228 183v-6Z" fill="#FADB88"/><path d="M158 169h12l-3 1 .035 1.863.028 2.45.035 2.425C167 179 167 179 166 182h-4l-1-3h-9v-1l5-1-2-2h3l1-2 3-2h-4v-2Z" fill="#6B5619"/><path d="m256 156 3 1 1 13h-9c-1.041-3.313-1.186-4.602.313-7.813L253 160h2l1-4Z" fill="#383129"/><path d="M266 163h9c.125 8.75.125 8.75-1 11-3.565 1.371-7.234 1.072-11 1l1-2 3 1-1-11Z" fill="#5C430F"/><path d="m169 57 7 2v2l3 1 .375 2.438L180 67l2 1c-7.22-1.444-14.051-3.578-21-6v-3l4-1 1 4h3v-5Z" fill="#564B2E"/><path d="M38 168c1.606.62 3.21 1.247 4.813 1.875l2.707 1.055C48 172 48 172 51 174v2c-1.583.027-3.167.046-4.75.063l-2.672.035c-2.36-.09-4.323-.429-6.578-1.098v8h-5l2-2c.343-2.533.442-5.037.559-7.59.507-2.772 1.285-3.668 3.441-5.41Z" fill="#F9E299"/><path d="m114 158 7 2-1.938 1.375c-2.159 1.464-2.159 1.464-3.062 3.625h10v3l-10-1-2 3h-3l-1 2v-4l-10-1 1-2c1.996-.563 1.996-.563 4.438-1 3.7-.623 3.7-.623 6.562-3v2h2v-5Z" fill="#DFBF6B"/><path d="m156 164 1.712.092 7.663.408 2.695.145 2.578.136 2.38.127A84.87 84.87 0 0 0 177 165v7h-2l-1-2-2 2c-2.125-.375-2.125-.375-4-1l-1 4v-5l-10-2-1-4Z" fill="#F3DDA5"/><path d="M274 144h1v7l-28 4-1-3c5.914-1.886 11.794-2.802 17.938-3.625l2.939-.406c2.374-.328 4.748-.65 7.123-.969v-3Z" fill="#A69A60"/><path d="M132 72c.125 2.625.125 2.625 0 5h-2v-4l-1.563 1.313c-2.985 2.066-6.084 3.31-9.437 4.687-1.34.653-2.677 1.312-4 2v-2l-2-1c1.409-3.405 2.873-5.055 6-7 2.727-.582 2.727-.582 5.625-.813l2.914-.269C130 70 130 70 132 72Z" fill="#151007"/><path d="m116 49 7 2c-.313 1.938-.313 1.938-1 4l-3 1-1 5-1-3-3.313 2c-2.624 1.585-3.513 2-6.687 2v-2h2l.188-2.188c1.06-3.67 3.009-5.289 5.812-7.812l1-1Z" fill="#120D02"/><path d="M157 132c2.54.256 5.039.567 7.563.938l2.154.302c1.762.249 3.522.504 5.283.76l-1 6c-6.578-.41-12.74-.866-19-3v-1h6v-2l-2-1 1-1Z" fill="#53421C"/><path d="m131 101 9 1 1 5h2l1 5-8-2v2l-5-1v-2h2v-7l-2-1Z" fill="#927E3E"/><path d="M197 159h2v3h9l2 4c-3.442 2.147-5.772 2.099-9.75 1.625l-2.984-.336L195 167v-2l-4 1 2-6 4 1v-2Z" fill="#78691B"/><path d="M130 128v6c-3.135 1.858-5.375 2.201-9 2v2l-8 1c.203-2.363.203-2.363 1-5 2.11-1.293 2.11-1.293 4.75-2.188l2.61-.917c.87-.296 1.742-.59 2.64-.895l2.766-1.113C129 128 129 128 130 128Z" fill="#34260A"/><path d="M118 93c-1.75 3.875-1.75 3.875-4 5-1.134 2.017-1.134 2.017-2 4v-2l-3 2c-2.262.633-2.262.633-4.688 1.125l-2.449.508L100 104c0-3 0-3 1.375-4.688C103 98 103 98 105 98v-2c4.806-3.172 7.186-4.702 13-3Z" fill="#231B09"/><path d="M53 158h11c.125 6.75.125 6.75-1 9l4 1c-3.718 1.24-5.439.57-9.188-.438l-3.292-.87L52 166c3.216-1.746 5.32-2.204 9-2v-2h-9l1-4Z" fill="#C1A565"/><path d="M110 129v5l-1.875.25L106 135l-.793 1.965C104 139 104 139 101.504 139.863l-2.942.45c-.968.16-1.936.322-2.933.488C93 141 93 141 90 140l2-3 1 1 1-3c1.98-.724 3.986-1.377 6-2a174.684 174.684 0 0 0 6.266-3.195C108 129 108 129 110 129Z" fill="#A3905D"/><path d="m25 163 1 3c2 1.209 2 1.209 4 2l-.063 3.75c0 2.925.13 5.453 1.063 8.25l1 3h-4l-1-3-2 1v-3l-3-1 2-1-.063-3.688c-.005-3.232.275-6.161 1.063-9.312Z" fill="#C5AF55"/><path d="m111 86 1 4c-4.578 3.745-4.578 3.745-6.82 5.098-3.736 2.305-5.541 3.855-6.618 8.215L98 107l-2-3-3-1c.14-2.246.14-2.246 1-5 2.547-2.098 2.547-2.098 5.75-4.063 3.956-2.46 7.665-4.956 11.25-7.937Z" fill="#AEA07B"/><path d="M153 91c1.792.309 3.584.622 5.375.938l3.023.527C164 93 164 93 166 94l-1 6c-7.375.363-7.375.363-9.938-1.125-1.448-2.556-1.74-4.978-2.062-7.875Z" fill="#8D7C47"/><path d="m70 126 10 1v9l-11-1 1-9Z" fill="#3D2806"/><path d="M114 152h4v3h-3l.063 2.875C115 161 115 161 114 163c-2.066.414-2.066.414-4.563.625l-2.503.227L105 164v-4l3-1-2-1v-4l4-1v4h3l1-5Z" fill="#F7D985"/><path d="m148 120 3 1c.688 2.063.688 2.063 1 4h2v4h-5v2l-4-1h3v-2l-10-1v-5l3-1v2h2l1 3 2 1v-5h2v-2Z" fill="#866F2F"/><path d="M166 126c3.199-.089 5.927.09 9 1l1 4 1-3 4 1-1 2h2v3l-2 2h-3v-3l-1.898-.184-2.477-.254-2.46-.246C168 132 168 132 166 131v-5Z" fill="#89733C"/><path d="M69 113h2c.027 2.042.047 4.083.063 6.125l.035 3.445c-.093 3.243-.484 6.25-1.098 9.43h6v1h-7v2h6v1h-5v3l3 2h-4v8h-2c-.09-4.746-.147-9.415.5-14.125.673-5.178.552-10.345.463-15.555A168.49 168.49 0 0 1 68 114l1-1Z" fill="#76603D"/><path d="M130 59c-.515 3.814-1.206 5.42-4 8a131.189 131.189 0 0 0-3 5l-2-1v-4l-1.875 1.5C117 70 117 70 115 70c1.498-3.814 3.765-5.574 7-8l2-2c2.098-.656 3.8-1 6-1Z" fill="#28210A"/><path d="M64 171c5.664.661 10.963 1.988 16.438 3.563l2.505.708c2.02.573 4.039 1.15 6.057 1.729l-1 2h-3l-1 3-4-1v-2h-2v-3l-2.313.563C73 177 73 177 70 176l-1-2h-5v-3Z" fill="#765510"/><path d="M68 121h1c.097 6.115-.23 11.933-1 18l-11-2 1-2-3-1 1-3v2l6-2-3-2h9v-8Z" fill="#433005"/><path d="M245 171c-1 2-1 2-3 3l-3 2c-2.578.33-5.127.44-7.723.559-.751.145-1.503.29-2.277.441l-2 3v-2l-4-1 1-2h3l1-3c5.72-.832 11.222-1.12 17-1Z" fill="#6D5318"/><path d="m165 45 1.938 2.313C170.316 50.75 174.444 51.779 179 53v2h2l-1 2-5-2 1.5 1.375C178 58 178 58 178 60l4 1-2 4a90.488 90.488 0 0 1-4-4v-2l-6-1 2-1v-2l-2-1c-3.667-2.667-3.667-2.667-5-4a99.984 99.984 0 0 1 0-5Z" fill="#2F2919"/><path d="M120 109c-.308 2.845-.548 4.53-2.563 6.625-2.724 1.537-5.455 2.572-8.398 3.613-2.79 1.043-5.404 2.379-8.039 3.762l1-5h2l1-2a277.867 277.867 0 0 1 5.156-2.137C114.053 112.04 115.531 109 120 109Z" fill="#B8AA74"/><path d="m118 8 2 1-1 3 3-3c-.484 4.356-1.79 6.091-5 9l-1 2h-2v2c-2.529 2.734-4.896 4.93-8 7l1-4h2c1.414-2.382 1.414-2.382 2-5l-1-3c1.813-2.688 1.813-2.688 4-5h2l2-4Z" fill="#877F69"/><path d="m69 100-1 12h-2l-1-4h-2v-2h-4c.375-2.938.375-2.938 1-6 3.069-1.534 5.7-.55 9 0Z" fill="#CFB776"/><path d="M165 23c2.438.375 2.438.375 5 1l1 2 3.5 1.25L178 29c.719 3.11.719 3.11 1 6-2.147-.81-4.293-1.622-6.438-2.438l-3.62-1.37C166 30 166 30 165 29c-.04-2-.043-4 0-6Z" fill="#3B3622"/><path d="M130 81v5h-4l-1 3h-3v2c-4.153 3.115-4.153 3.115-7.313 2.688L113 93v-2c1.645-1.184 1.645-1.184 3.813-2.438 2.8-1.627 4.933-3.246 7.187-5.562 3-2 3-2 6-2Z" fill="#130C03"/><path d="m165 34 9 2v2l3 1v2h2v3c-5.774-.481-9.959-2.185-15-5l1-5Z" fill="#433D23"/><path d="M164 8c3.595.949 6.843 2.009 10 4 1.447 2.96 1.846 5.728 2 9-3.946-.564-6.832-1.536-10-4-.75-2.438-.75-2.438-1-5-.32-1.337-.65-2.67-1-4Z" fill="#7B7250"/><path d="M215 175h2v2l3 1c2.347.97 4.67 1.989 7 3-3.792 2.528-6.809 2.224-11.188 2.125l-2.271-.027c-1.847-.024-3.694-.06-5.541-.098v-1h7v-2l-3.375.125C208 180 208 180 206 178l9-1v-2Z" fill="#72651C"/><path d="M206 166h4v2h2c-.557 3.344-1.352 6.033-3 9h-2l-.375-2.375c-1.354-2.816-1.354-2.816-3.984-3.402A113.391 113.391 0 0 0 195 170v-2h11v-2Z" fill="#F2E085"/><path d="m135 124 1 2h-5v2l2 1 .938 1.938c1.015 2.382 1.015 2.382 4.062 4.062-5.75.125-5.75.125-8-1-.625-2.563-.625-2.563-1-5l-3.188 1.563c-3.297 1.434-5.318 1.602-8.812.437 2.294-2.294 4.373-3.265 7.313-4.625l2.863-1.352c2.834-1.027 4.84-1.23 7.824-1.023Z" fill="#776720"/><path d="m106 49 3 3-2 3h-2l-1 4h-2l-1 3h-2l-1 3-3 1 1-6h2v-4c2.313-2.063 2.313-2.063 5-4a98.28 98.28 0 0 0 3-3Z" fill="#120B04"/><path d="M131 56c5.76.68 10.951 2.609 16.375 4.563l2.809.998c2.273.808 4.545 1.622 6.816 2.439l-1 2-3-1-1 4-4-1v-4h-3l-1-2a105.259 105.259 0 0 0-6.563-2.125l-3.628-1.07L131 58v-2Z" fill="#4C3D1B"/><path d="m131 18 6 2-4 1v3l1.898.621 2.477.817 2.46.808C142 27 142 27 144 28v2l-3.313-.625c-3.77-.778-3.77-.778-6.687 1.625v-3h-7l1-2.875c1.102-2.896 1.102-2.896 1-5.125h2v-2Z" fill="#221B0C"/><path d="M215 151h1l1 10h5c1.43 2.354 2.087 3.48 1.625 6.25L223 169c-2.875.125-2.875.125-6 0-2-2-2-2-2.195-5.695.013-1.477.037-2.954.07-4.43l.027-2.285c.024-1.864.06-3.727.098-5.59Z" fill="#272521"/><path d="M166 175c2.248 2.052 3.002 3.007 4 6l3.36-.07c1.463-.02 2.926-.037 4.39-.055l2.21-.05c4.175-.039 6.21.26 10.04 2.175h-36l1-2 6 1v-2h-2v-2l6 1-3 1v2h4v-7Z" fill="#433002"/><path d="m112 73 2 3c-5.75 5-5.75 5-8 5v2c-1.715 1.438-1.715 1.438-3.938 3-3.048 2.048-3.048 2.048-5.062 5h-3c.523-4.005 2.397-5.648 5.375-8.25l2.398-2.14C104 79 104 79 107 79l1-3c2.063-1.688 2.063-1.688 4-3Z" fill="#A69A7C"/><path d="M158 65c8.312 1.492 16.329 4.513 24 8l-3 2v-2l-5 2-1-3c-2.015-.733-2.015-.733-4-1l-1 3h-5l1-5-6-2v-2Z" fill="#5B4E27"/><path d="m61 89 11 1v1l-8 1 6 2v1l-5 1 5 1v1l-3.313.438c-3.618.445-3.618.445-6.687 1.562-.733 2.015-.733 2.015-1 4h-2l.621-2.012.816-2.675.81-2.637C59.956 94.15 60.484 91.574 61 89Z" fill="#635025"/><path d="M163 89c10 1 10 1 13 4l3 2c-2.76 1.804-3.89 2.013-7.25 1.625L169 96v5l-3-1c-.979-2.365-1.121-3.6-.375-6.063L166 92c-1.354-1.772-1.354-1.772-3-3Z" fill="#1D1609"/><path d="M136 178h8v1l17 1v2l-2.938-.063c-2.937-.293-2.937-.293-4.062 1.063-7.167.634-14.01-.512-21-2l3-1v-2Z" fill="#6F601A"/><path d="m66 151 1 4h7v-2h-6v-1h9v4h-9l-1 5 10 2-1 2H64l2-14Z" fill="#856626"/><path d="M179 150h10v12l4 2c-3.246 1.082-3.874.781-7 0l-3 1-3-1v-4h2l1-2 1 3h2v-9l-7-1v-1Z" fill="#CEBA62"/><path d="M0 176h22v2l3 1c-2.599 1.3-4.327 1.022-7.227.879l-3.125-.147-3.273-.17-3.297-.158c-2.693-.13-5.385-.265-8.078-.404v-3Z" fill="#6B5825"/><path d="m78 148 1 2h7v2h2l-1 8h-2l-2 1-2-1c-.625-3.063-.625-3.063-1-6h-2v-6Z" fill="#705D16"/><path d="M25 164v13l-25-1v-1h21l1-6-4-1v-3c2-1 2-1 7-1Z" fill="#95844B"/><path d="m188 139 2 1-1 5h-3v4l5 1 1 5h-2c.564 3.27 1.5 4.826 4 7l-5 1c-1.297-3.892-1.13-6.894-1-11l1-2-6-1v-4l5-1v-5Z" fill="#4B4028"/><path d="M55 116h2v11h2l1-5h1v5h2v-6h2l-1 7-8 1-2 8h-1c-.281-7.166.796-13.945 2-21Z" fill="#A79261"/><path d="m144 98 12 2-2 5 4 1c-4.873-.646-9.631-1.51-14.438-2.563l-3.746-.816L137 102l1-3v2l7 1-1-4Z" fill="#191103"/><path d="M66 177c7.28-.766 13.677 2.765 20 6-2.584.081-5.165.14-7.75.188l-2.21.076c-3.27.044-5.635-.05-8.556-1.588C66 180 66 180 66 177Z" fill="#412704"/><path d="M270 136c2.625.375 2.625.375 5 1 .125 6.625.125 6.625-1 10-2.957 1.478-5.742 1.06-9 1v-2l-2-1c2.982-.773 5.976-1.412 9-2v-4l-4-1 2-2Z" fill="#353736"/><path d="M175 126c1.437-.027 2.875-.046 4.313-.063l2.425-.035C184 126 184 126 187 127v2h-3v4l4 2v2l-10-2 4-1v-3h-2v-2l-3-1-1 4c-1-1-1-1-1.063-3.563L175 126Z" fill="#B5A56B"/><path d="M60 149h6c.054 1.416.093 2.833.125 4.25l.07 2.39c-.212 2.567-.908 4.152-2.195 6.36v-4h-8v-3h4l-4-1v-2l3.938.063A59.19 59.19 0 0 0 64 152l1-1h-5v-2Z" fill="#432E02"/><path d="M83 108c5.75-.125 5.75-.125 8 1l-1 9-7-1v-9Z" fill="#E6CF92"/><path d="M133 49c10.558 3.075 10.558 3.075 15 5v-4h2v5l6 2c-1.504 1.172-1.504 1.172-4 2a68.29 68.29 0 0 1-7.938-2.75l-2.13-.844A542.688 542.688 0 0 1 136 53a4793.96 4793.96 0 0 0-5-2l2-2Z" fill="#4B4025"/><path d="M95 164h10l-4 2 10 1-1 5-8-1v-1l-7-2v-4Z" fill="#8A6314"/><path d="M130 134c3.938.474 7.875.955 11.813 1.438l3.392.408 3.252.4 3 .365C154 137 154 137 157 138v2c-9.09-.574-18.002-1.61-27-3v-3Z" fill="#D7C07E"/><path d="M189 110h2c.625 1.875.625 1.875 1 4l-2 2 2 1v16l-1-4-3-1c-.027-2.625-.047-5.25-.063-7.875l-.025-2.262c-.025-5.636-.025-5.636 1.088-7.863Z" fill="#21252C"/><path d="M263.5 163.875C266 164 266 164 267 165c.072 1.52.084 3.042.063 4.563l-.028 2.503L267 174l-6 1c-.194-1.645-.38-3.291-.563-4.938l-.316-2.777L260 165c1-1 1-1 3.5-1.125Z" fill="#B1934C"/><path d="M130 143h9v1h-8v16h-2v-3l-7 1v-4l3-1v-3h2l1 4v-8h2v-3Z" fill="#C09D34"/><path d="m156 150 13 1 1 5-2 2-.125-1.875L167 154c-2.996-1.305-2.996-1.305-6-2v4h2v2l-7 1c-1.226-3.678-.843-4.784 0-9Z" fill="#584001"/><path d="M217 171h2v2h8v2h-3v2l3 1 1 5-4-1 2-1-3.375-.875C219 179 219 179 217 177c-.125-3.125-.125-3.125 0-6Z" fill="#423104"/><path d="M180 145h3v4l2 1-3 1 4 1v9h-1l-1-7c-3.655-.752-7.317-1.4-11-2v5h-1v-6h6v-2h-5v-1h7v-3Z" fill="#9A8331"/><path d="m119 59 4 1c-1 3-1 3-3.938 5.438-3.086 2.236-3.086 2.236-4.187 4.812-.875 1.75-.875 1.75-3 2.5L110 73c.188-3.313.188-3.313 1-7 2.375-1.688 2.375-1.688 5-3 1.783-2.07 1.783-2.07 3-4Z" fill="#0D0904"/><path d="m0 171 3 2 2-2h5v3h6v-3h6l-1 4H0v-4Z" fill="#D6C5A3"/><path d="M271 152h4v11h-5a271.487 271.487 0 0 1-.625-4.375l-.352-2.46L269 154l2-2Z" fill="#B99A48"/><path d="M161 108c5.915.452 11.352 1.158 17 3l-1 6-3-1v-2h-2v-3l-7-1v4h-2c-2-3-2-3-2-6Z" fill="#B39F68"/><path d="M130 101v2h2v5l-1-4c-5.741 1.475-5.741 1.475-9.5 5.688L121 112l-1-3-3.313 2.063c-1.863 1.16-1.863 1.16-3.687 1.937l-3-1c2.382-2.681 4.855-4.114 8.063-5.688l2.66-1.324C123 104 123 104 125 104v-2c2-1 2-1 5-1Z" fill="#4B3E1E"/><path d="M104 42h2c1 3 1 3 .375 4.938-1.75 2.623-3.869 4.167-6.375 6.062l-1.75 1.75L97 56h-1c-.313-2.188-.313-2.188 0-5 2.313-2.563 2.313-2.563 5-5l1.688-2.313L104 42Z" fill="#140D07"/><path d="M137 5c6.077 2.228 11.468 4.62 17 8l-1 3a301.162 301.162 0 0 1-4.438-1.813l-2.496-1.019C144 12 144 12 143 9l-2.313.688L138 10c-1.813-1.438-1.813-1.438-3-3l2-2Z" fill="#050400"/><path d="m212 168 4 2 1-2 12 1-2 4h-8v-2l-3 2c-2.688.125-2.688.125-5 0l1-5Z" fill="#453F28"/><path d="m172 160 8 2v2l5 1 1-2 5 2v2c-2.896-.141-5.792-.288-8.688-.438l-2.474-.119c-4.035-.212-7.895-.487-11.838-1.443l2-1.375 2-1.625v-2Z" fill="#69510F"/><path d="m179 112 7 1v2h-2l2 7-18-3v-1c1.604-.027 3.208-.046 4.813-.063l2.707-.035C178 118 178 118 181 119v-6l-2-1Z" fill="#948B5D"/><path d="M122 179c5.234-.163 9.863.394 14.938 1.5l2.072.434c1.664.349 3.327.707 4.99 1.066v1h-22v-4Z" fill="#EFD695"/><path d="M56 170h2v2l6-1v3l5-1 1 3h8v3l2 1c-5.192-.68-9.894-2.156-14.813-3.875l-2.35-.777c-1.98-.69-3.914-1.51-5.837-2.348l-1-3Z" fill="#D8BA66"/><path d="M149 121h9l-2 8h3c-1 2-1 2-2 3-2.69-.176-5.329-.618-8-1v-2h5v-4h-2c-1.625-2-1.625-2-3-4Z" fill="#A18B4B"/><path d="M81 109h2v8h6l1-5h1v11l-1-2h-2v-2l-4 3-1-2-2 2v-13Z" fill="#7F662B"/><path d="M130 34c-.576 3.568-1.87 5.252-4.438 7.75l-1.87 1.86C122 45 122 45 120 45l-.813 1.938C118 49 118 49 115 50c.578-3.13 1.4-4.777 3.652-7.016l1.604-1.601 1.681-1.633 1.67-1.68C127.733 34 127.733 34 130 34Z" fill="#96916B"/><path d="m118 143-2 2-1 3c-2.066.73-2.066.73-4.563 1.188l-2.503.48L106 150v-5a210.497 210.497 0 0 1 3.75-1.563l2.11-.878c2.44-.637 3.78-.361 6.14.441Z" fill="#3D2D0B"/><path d="M72 114h1c.027 1.458.046 2.917.063 4.375l.035 2.46C73 123 73 123 72 125h2v-5l2-1 1 1h2l1 7c-6.75.125-6.75.125-9-1l1-12Z" fill="#D3BB7B"/><path d="M115 0c2.164-.293 2.164-.293 4.625-.188l2.477.083L124 0c-1.618 3.415-2.446 4.769-6 6.25L115 7l-3 1c.547-3.375 1.055-5.082 3-8Z" fill="#07070A"/><path d="M179 166c1.625-.027 3.25-.046 4.875-.063l2.742-.035C189 166 189 166 191 167l-1 3h-7v2h-5l1-6Z" fill="#E1CD94"/><path d="m123 150 3 1-1 3h-3v4l7-1v4a402.219 402.219 0 0 1-4.938-.375c-.916-.07-1.833-.14-2.777-.21L119 160l-1-2h2l.375-3.438L121 151l2-1Z" fill="#FDEBA1"/><path d="M51 128c2.36 2.36 2.491 3.779 3 7l1-1a91.472 91.472 0 0 1 5.063-.063l2.785.028L65 134v1l-3.25.188c-4.46.966-5.174 2.224-7.75 5.812h-3l.125-2.375c.162-2.786.162-2.786-2.125-4.625.556-4.556.556-4.556 2-6Z" fill="#5C4D29"/><path d="m82 119 3 1 3-1v2h2l-1 9h-4v-3h3l-3-1-1 2h-2v-9Z" fill="#DCC588"/><path d="M90 178c5.913.643 11.342 2.19 17 4v1c-2.792.054-5.583.094-8.375.125l-2.406.05c-2.074.018-4.148-.072-6.219-.175l-2-2 2-1v-2Z" fill="#6A4B09"/><path d="M78 155h3v5l2.25.813c2.627 1.134 4.51 2.44 6.75 4.187a424.4 424.4 0 0 1-4.75-.375l-2.672-.21C80.01 164 78.242 163.287 76 162v-4h2v-3Z" fill="#EBD876"/><path d="m81 139 7 1-1 2 1 1c.04 1.666.043 3.334 0 5l-7-1v-8Z" fill="#D5BB79"/><path d="m121 123 3 1c-.648 2.355-.648 2.355-2 5-2.602 1.363-2.602 1.363-5.625 2.313l-3.04.988L111 133c.25-2.875.25-2.875 1-6 1.813-1.438 1.813-1.438 4-2 2.25.375 2.25.375 4 1l1-3Z" fill="#DCC8A8"/><path d="M152 52c3.916.783 7.364 2.392 11 4v3h-3l-1 2-5-2v-2l-2-1v-4Z" fill="#867C4F"/><path d="m37 175 3 1c.688 2.063.688 2.063 1 4l1-2 6 2v3H37c-1.125-5.75-1.125-5.75 0-8Z" fill="#E5BC4B"/><path d="m118 168 1 2h7v3h-2v2h-8v-3h-3v-2h4l1-2Z" fill="#C69D47"/><path d="M68 164c1.063 1.875 1.063 1.875 2 4l-1 2h4l-1 3-15-4v-2l9 1-3-1v-2l5-1Z" fill="#C19B4B"/><path d="M79 136c2.68 4.019 2.156 6.242 2 11l4 1c-1 1-1 1-3.5 1.125C79 149 79 149 78 148c-.04-2-.043-4 0-6l-4-1v-2l3-1h-5c3-2 3-2 7-2Z" fill="#AC944F"/><path d="M129 120c.313 2.313.313 2.313 0 5-2.383 1.819-3.958 3-7 3l1-4-2-1-1 4-2-2v-3c3.83-1.802 6.781-2.196 11-2Z" fill="#83723D"/><path d="m153 90 2 8-12-2 3-1v-4c2.49-.687 4.379-1 7-1Z" fill="#6D5C25"/><path d="m63 115 2 2 2-2v13h-3l1-7h-2v6h-2c.14-1.813.287-3.625.438-5.438.08-1.009.162-2.018.246-3.058C62 116 62 116 63 115Z" fill="#E3CA86"/><path d="M146 115c5.527-.194 9.756.252 15 2l-2 4c-2.875.125-2.875.125-6 0l-2-2v-3l-1 2h-4v-3Z" fill="#1E1406"/><path d="M129 104v8c-3.29 1.097-4.713.8-8 0 .188-2.313.188-2.313 1-5 4.034-3 4.034-3 7-3Z" fill="#AC9B6C"/><path d="M105 104v3h2v2h-3l-1 3-5-1-1 2c-2.063.625-2.063.625-4 1v-3c3-2 3-2 6-2l1-3c3-2 3-2 5-2Z" fill="#817552"/><path d="M93 89c1.063 1.875 1.063 1.875 2 4l-1 2 3 2-3 1-1 5h-1l-1-5h-8v-4h7v2h2l1-7Z" fill="#3B2D0D"/><path d="M133 21c5.07.654 9.42 2.855 14 5v3c-5.07-.654-9.42-2.855-14-5v-3Z" fill="#A39772"/><path d="m122 12 2 1c-.315 3.463-.703 5.586-2.75 8.438C119 23 119 23 116.25 22.75L114 22v-2h2l.75-2.313c1.36-2.923 2.566-3.987 5.25-5.687Z" fill="#160E07"/><path d="M238 158h1l.148 1.934.227 2.504c.07.823.14 1.647.21 2.496L240 167l2 1c-3.848 1.18-7.758 1.332-11.75 1.563l-2.113.13c-1.712.106-3.425.207-5.137.307l3-4 6 1 1-2v2l5-1v-8Z" fill="#413C33"/><path d="M161 152c3.463.315 5.586.703 8.438 2.75 1.562 2.25 1.562 2.25 1.312 5L170 162c-2.248-2.052-3.002-3.007-4-6l-2-1v4c-3 2-3 2-6 2v-2h2l1-2 2 1v-2h-2v-4Z" fill="#967F1A"/><path d="m217 147 3 1v13h-3c-.993-2.979-1.134-5.016-1.125-8.125l-.008-2.695C216 148 216 148 217 147Z" fill="#575836"/><path d="M105 124v2h2v2c-4.774 2.714-8.344 4.566-14 4v-2l3-1a262.496 262.496 0 0 0 5-4c2-1 2-1 4-1Z" fill="#32240B"/><path d="m104 25 2 1c0 4.034-1.745 6.777-4 10-2.25 1.938-2.25 1.938-4 3-.326-4.162-.407-6.363 1.875-9.938C102 27 102 27 104 27v-2Z" fill="#77725E"/><path d="m29 170 2 4 2-3h2c1.263 4.293.63 6.878-1 11l-5-1 2-1-2-3a97.813 97.813 0 0 1 0-7Z" fill="#E9D075"/><path d="M137 168h15v3l-3.813.563-2.144.316C144 172 144 172 141 171v2h-3l-1-5Z" fill="#F8CA67"/><path d="M110 128h2v4l6-1 1 2a718.39 718.39 0 0 1-6.313 2.563l-3.55 1.44C106 138 106 138 103 137l4-5v2h3v-6Z" fill="#756730"/><path d="M123 77h2c-.152 2.262-.152 2.262-1 5-2.504 2.02-2.504 2.02-5.563 3.813l-3.066 1.832L113 89c.53-3.553.714-4.722 3.375-7.313C119 80 119 80 122 80l1-3Z" fill="#B0A57A"/><path d="M112 176c4.38.52 8.688 1.057 13 2l-3 1v4l-8-1 1-5-3-1Z" fill="#E3C582"/><path d="M70 136h5l2 4-3-1v2l4 2c-1.313 2-1.313 2-3 4h-3l-1-3 1-2-3 1 1-7Z" fill="#DCBF72"/><path d="M138 87c4.03.553 8.02 1.156 12 2v2h-4v4l-5-1v-3h-2l-1-4Z" fill="#84793F"/><path d="M150 40c4.087-.24 7.177.577 11 2l1 5-1.875-.563c-2.167-.674-2.167-.674-4.125.563v-2l-6-2v-3Z" fill="#91865E"/><path d="M148 0c2.438.375 2.438.375 5 1l1 2 2.5.5 2.5.5c1.478 2.957 1.06 5.742 1 9l-4-1 2-4-10-5V0Z" fill="#9C8D6F"/><path d="M169 175h5l1 3h4v-2l4-1v4l4 1c-5.93.97-11.064.893-17 0l-1-5Z" fill="#453004"/><path d="m114 158 7 2-1.938 1.375c-2.159 1.464-2.159 1.464-3.062 3.625h10v3a479.69 479.69 0 0 1-6.313-.813l-3.55-.457c-3.131-.729-4.233-1.222-6.137-3.73l2-2v2h2v-5Z" fill="#EDC758"/><path d="M124 145v3l-5 1v3l-2.875.313c-3.416.372-3.416.372-5.125 3.687v-5h2l.563-1.875C115.912 145.65 119.924 145 124 145Z" fill="#998019"/><path d="M54 119c1.231 3.694.644 6.206 0 10-2.076.553-3.844 1-6 1v-9h5l1-2Z" fill="#483E32"/><path d="M72 87c8.571-.143 8.571-.143 12 1v4h7v1h-8v-2c-3.343-.074-5.804-.065-9 1v-4l-2-1Z" fill="#3F3725"/><path d="M133 73c1.438.31 2.875.623 4.313.938l2.425.527C142 75 142 75 145 76v4c-1.44-.284-2.876-.577-4.313-.875l-2.425-.492C136 78 136 78 133 76v-3Z" fill="#C6AF7C"/><path d="M133 59c4.195.6 8.01 1.575 12 3v4h-3l-1-3-1 2-7-2v-4Z" fill="#B6A573"/><path d="M132 45h1v8l-2.875.875c-3.177.893-3.177.893-5.125 3.125l-3 3-3-2a482.758 482.758 0 0 1 3.375-3l1.898-1.688C126 52 126 52 128 52l.875-1.813C130 48 130 48 132 45Z" fill="#291D0E"/><path d="m137 28 8 1 1 3 2 1v3l-1.828-.621-2.422-.816-2.39-.81A84.887 84.887 0 0 0 135 32l2-4Z" fill="#080504"/><path d="M134 28v2h-3v2c-2.07 2.587-3.757 3.44-7 4-1-3-1-3 .25-5.625 2.914-3.955 5.349-3.446 9.75-2.375Z" fill="#110807"/><path d="M126 22h4c-1.345 4.042-3.05 6.387-6.125 9.313l-2.195 2.113L120 35c-1.097-3.29-.8-4.713 0-8h3l1.438-2.5L126 22Z" fill="#8B8667"/><path d="M17 179h11v4H9v-1l8-1v-2Z" fill="#312408"/><path d="m81.938 171.75 3.214.484c2.913.784 4.012 1.437 5.848 3.766-4.233 1.186-7.104.719-11.313-.438l-3.238-.87L74 174v-2c2.856-1.428 4.81-.75 7.938-.25Z" fill="#B59547"/><path d="m99 111 2 2-2 3h2v2l-6 1v2l-4 2c-.366-4.512-.366-4.512 1.313-6.75C94 115 94 115 97 114l2-3Z" fill="#312006"/><path d="m75 97 2 2-1 2 3-1 2 1 1-4v12l-5 1v-5h2v-1l-2-1-1 1-2-1 1-6Z" fill="#B29656"/><path d="M155 52c4.847.782 9.377 2.398 14 4v6l2 1-5-1-1-3c-2.556-3.408-6.153-4.476-10-6v-1Z" fill="#4B3D1E"/><path d="M112 22h2v2h2l-1 3h-2l-.313 1.813c-.776 2.47-1.758 3.51-3.687 5.187l-3-1 1-3h2l.375-2.313C110 25 110 25 112 22Z" fill="#0C0602"/><path d="M197 174h3l-1 4h5v2h-3l1 3h-8v-1h6v-2l-9 1v-3h7l-1-4Z" fill="#382802"/><path d="M127 166c8.726-.097 17.33-.167 26 1v1l-15 1v1h-5v-2l-6-1v-1Z" fill="#D4A64B"/><path d="M133 157c4.548-.178 7.88.002 12 2v3l-12-1v-4Z" fill="#FEF8CD"/><path d="m261 156 2.875 1.063c2.996 1.287 2.996 1.287 5.125-.063l1 6c-3.287.8-4.71 1.097-8 0l-1-7Z" fill="#D8B454"/><path d="m131 101 9 1 1 7c-4.474.363-4.474.363-6.813-1.25C133 106 133 106 133 102l-2-1Z" fill="#B2A267"/><path d="m169 57 7 2v2l3 1 1 3c-3.95-.551-7.35-1.39-11-3v-5Z" fill="#93865D"/><path d="M138 32c6.406 2.514 12.734 5.154 19 8l-1 2-1-1c-2.458-.25-2.458-.25-5 0l-2 2v-5l-1.563-.313c-3.297-.93-6.303-2.301-9.437-3.687l1-2Z" fill="#342C13"/><path d="M133 9h4v2l6 1 1 4h3l-1 2a374.511 374.511 0 0 1-5.938-2.25l-3.34-1.266C134 13 134 13 133.123 10.828L133 9Z" fill="#A2977A"/><path d="m250.328 179.926 2.422.166 2.5.22 2.547.186c2.069.153 4.136.326 6.203.502v2h-22c4.5-3.375 4.5-3.375 8.328-3.074Z" fill="#F8D077"/><path d="M143 152h4l1 4 2-1v6l-5 1-1-3c-2-1.209-2-1.209-4-2h4l-1-5Z" fill="#F7E6A6"/><path d="M70 142h2l1 4 2-3h3v6h-9c-.625-2.375-.625-2.375-1-5l2-2Z" fill="#BDA053"/><path d="m173 140 3 .438c3.994.571 7.995 1.07 12 1.562v2c-4.284 1.168-7.648.633-12 0-2.322.347-2.322.347-4 1l1-5Z" fill="#B3A666"/><path d="m133 88 5 1 2 7h-7v-2l-2-1h2v-5Z" fill="#A2925B"/><path d="m102 70 3 1-1 3h-2l-.688 2.438L100 79c-2.625.813-2.625.813-5 1v-4h2v-2c2.313-2.188 2.313-2.188 5-4Z" fill="#898265"/><path d="M159 4c4.214 2.107 4.614 2.46 6.313 6.5l1.05 2.406C167 15 167 15 166 17l2 1-3 1-1-6h-3l-2-9Z" fill="#2F230C"/><path d="M40 168c6.195.416 11.267 1.603 17 4v1c-5.372 1.27-8.125 1.313-13-1.438A137.089 137.089 0 0 1 40 169v-1Z" fill="#694D0B"/><path d="m161 72 1 3c2.015.733 2.015.733 4 1l-2 2-1 2-9-3 2-1v-3l5 1v-2Z" fill="#1C1506"/><path d="M135 46c2.164.242 2.164.242 4.625.875l2.477.617L144 48l1 5c-1.44-.257-2.877-.53-4.313-.813l-2.425-.457c-2.496-.806-3.586-1.75-5.262-3.73l2-2Z" fill="#BFB086"/><path d="M133 33c4.565.543 7.973 1.795 12 4v3c-1.44-.284-2.876-.577-4.313-.875l-2.425-.492C136 38 136 38 133 36v-3Z" fill="#B5A974"/><path d="M127.188-.25 130 0c-1.27 3.914-2.512 5.79-6 8l-1-2h-2l-1 2c.849-4.753 2.055-7.847 7.188-8.25Z" fill="#736D5B"/><path d="M59 178c1.46.45 2.918.91 4.375 1.375l2.46.773C68 181 68 181 70 183H56v-3h3v-2Z" fill="#F9E09A"/><path d="M54 144h10l1 4-11 1v-5Z" fill="#C1A864"/><path d="m153 79 10 2 1 5c-1.46-.282-2.918-.576-4.375-.875l-2.46-.492C155 84 155 84 153 82v-3Z" fill="#B3A06C"/><path d="m111 79 3 2c-.688 2.375-.688 2.375-2 5-2.915 1.57-4.68 2-8 2l2-6 5-1v-2Z" fill="#170C03"/><path d="m103 67 2 1c-4.625 4.875-4.625 4.875-8 6v2l-3-1v-2l-1-3 5-2 1 2 4-3Z" fill="#1E180A"/><path d="m130 152 3 2c2.754.025 2.754.025 5.688-.375l3.011-.336L144 153v4l-12-1-1 4c-1-1-1-1-1.063-4.563L130 152Z" fill="#DAB94A"/><path d="m97 119 3 1-1 6-8 2c1.134-4.535 2.642-5.9 6-9Z" fill="#B8A97E"/><path d="M149 107c4.75-.125 4.75-.125 7 1 .625 3.063.625 3.063 1 6l-9-1 1-6Z" fill="#67521B"/><path d="M84 97h7l1 5c-3.29 1.097-4.713.8-8 0v-5Z" fill="#CFB871"/><path d="M153 65h5v2l5 2v3l-2.125-.938c-2.964-1.095-5.752-1.626-8.875-2.062l1-4Z" fill="#A89669"/><path d="M111 42c-1.173 3.337-2.189 5.774-5 8h-2l-.75 1.875c-1.478 2.512-2.69 2.886-5.25 4.125l-1 3-1-3 3-1 1-3h2l1-3h2l.313-1.813C106.28 44.11 107.608 42 111 42Z" fill="#ADA78F"/><path d="M102 155h2l1 4c-4.516.077-8.59.102-13-1v-3c3.59-1.242 6.321-.72 10 0Z" fill="#CFB738"/><path d="m67 125 1 4-6 1 5 1v1l-11 1-1-6 1 2a435.9 435.9 0 0 0 4.938-.875l2.777-.492L66 127l1-2Z" fill="#6E5A25"/><path d="m182 112-1 1c-.04 2-.043 4 0 6l-9-1v-3l5 2-1-5c2.49-1.245 3.41-.777 6 0Z" fill="#807138"/><path d="m106 56 1 3-11 11-1-3c1.75-2.5 1.75-2.5 4-5l1.625-1.813C102 59 102 59 104 59v-2l2-1Z" fill="#9C9580"/><path d="M130 47c-1.346 4.281-3.02 6.186-6.625 8.813l-2.477 1.832L119 59l-1-3 4-1 .25-1.75c1.356-4.069 3.43-6.25 7.75-6.25Z" fill="#988A5E"/><path d="m39 175 7 1v2l1.75.813c2.283 1.204 4.224 2.595 6.25 4.187h-6l-.75-1.938c-1.066-2.25-1.066-2.25-3.375-2.812L42 178l-1 3-2-6Z" fill="#F8D671"/><path d="m153 149 17 1v5l-1-4-2.336.035-3.039.028-3.023.035C158 151 158 151 156 150v5h-3v-6Z" fill="#876716"/><path d="m82 100 1 3h7v2l3 1c-2 1-2 1-3 1l-1 2h-7v-9Z" fill="#423009"/><path d="m165 98 1.813 1c2.24 1.208 2.24 1.208 5.187 1v2l3.938.375c2.214.21 2.214.21 4.062.625l1 2c-5.126.103-9.95.036-15-1v-2l-4-2h3v-2Z" fill="#7A6736"/><path d="m130 85 1 2h2v6l-3-1v-4c-1.64 1.02-1.64 1.02-3.313 2.063-1.863 1.16-1.863 1.16-3.687 1.937l-3-1h2v-2l3-1 1-2c2.063-.625 2.063-.625 4-1Z" fill="#363017"/><path d="M41.688 160.313 45 161v3c-3.01.934-3.867 1.044-7 0v2h-2l-1-3c2.107-3.099 2.82-3.015 6.688-2.688Z" fill="#857155"/><path d="M133 138c1.46.06 2.918.149 4.375.25l2.46.14L142 139l2 4-11-1v-4Z" fill="#362F0A"/><path d="M129 88c.375 2.25.375 2.25 0 5-4.973 4-4.973 4-8 4 .125-2.25.125-2.25 1-5 5.19-4 5.19-4 7-4Z" fill="#AE9F7F"/><path d="m97 149 1 2c1.895.465 1.895.465 4.063.625L106 152v6l2 1h-3l-1-4-7 1 2-2-1-1a93.365 93.365 0 0 1-1-4Z" fill="#836E0C"/><path d="M159 134h10v5c-6.055-.39-6.055-.39-8-1l-2-4Z" fill="#292207"/><path d="M131 117v2h2v5h-3l-1 2-1-5h-3l1-3c2-1 2-1 5-1Z" fill="#604A15"/><path d="m99 96-1 11-2-3-3-1c.313-2.375.313-2.375 1-5 3-2 3-2 5-2Z" fill="#8C7E5E"/><path d="m171 85 9 1 1 5-2.188-.938c-2.615-.988-5.063-1.59-7.812-2.062v-3Z" fill="#CBB88D"/><path d="M131 85c5.75.75 5.75.75 8 3v3l4 1v3h-2v2l-3-1v-2c-.318-1.67-.65-3.337-1-5l-6-2v-2Z" fill="#766533"/><path d="M110 66c1.063 1.875 1.063 1.875 2 4l-1 2h3l-1 3-3-1-1 3h-2c-.37-7.508-.37-7.508 1.5-10l1.5-1Z" fill="#2C2310"/><path d="M130 59c-.154 2.688-.488 4.458-2.367 6.445C123.388 69 123.388 69 122 69c-.375-2.188-.375-2.188 0-5 2.172-2.48 4.552-5 8-5Z" fill="#9F9270"/><path d="m103 34 2 4-2 3h-2v2l-4 1c0-3.59.664-4.109 3-6.688l1.688-1.886L103 34Z" fill="#0F0B07"/><path d="m155 5 1 2 3 1-4 4-5-2V6l5-1Z" fill="#75664C"/><path d="M134 0h11l-2 1 1 4c-3.719-.507-6.735-1.116-10-3V0Z" fill="#948C6D"/><path d="m164 155 3 1v3l2 1 1 3h-7l-1-4h2v-4Z" fill="#D9C261"/><path d="m246 156 3 1c2.333.04 4.667.044 7 0l-1 3h-5l1 3-10-2v-1l5-1v-3Z" fill="#343A48"/><path d="m194 152 3 2-.5 2.438c-.532 2.29-.532 2.29-.5 3.562h-5l-1-5h2v-2l2-1Z" fill="#37363C"/><path d="M68 135h7v1h-5v3l3 2h-4v8h-2a672.997 672.997 0 0 1-.063-4.75l-.035-2.672c.09-2.36.429-4.323 1.098-6.578Z" fill="#947C3B"/><path d="M79 127h1v9l-11-1v-2l10-1v-5Z" fill="#564019"/><path d="m81 130 1.863.254 2.45.309 2.425.316c2.43.269 2.43.269 5.262-.879v2l3 1c-3.755 2.504-4.869 1.96-9.188 1.125l-3.292-.617L81 133v-3Z" fill="#453309"/><path d="m156 109 4 1v5l12 2v1c-5.773.196-10.034.25-14.813-3.375C156 113 156 113 156 109Z" fill="#C4B17A"/><path d="m91 102 6 1v4l2 2-6 2c-1.245-2.49-.777-3.41 0-6h-3l1-3Z" fill="#605A45"/><path d="m178 98 1 2 3 1 1 5h2v2l-11-3v-1h6l-2-1v-5Z" fill="#A5996F"/><path d="M158 169h12l-3 1v5h-3v-3l-6-1v-2Z" fill="#998341"/><path d="m156 164 11 1-3 4-7-1-1-4Z" fill="#FDE7A9"/><path d="m110 95-1 2-.813 2c-1.945 3.277-4.683 3.832-8.187 5 0-3 0-3 1.375-4.688C103 98 103 98 105 98v-2c2-1 2-1 5-1Z" fill="#251907"/><path d="M72 98c.083 4.833-.047 9.237-1 14l-2-2c.023-2.383.023-2.383.375-5.125l.336-2.758L70 100l-7-1v-1c6.75-1.125 6.75-1.125 9 0Z" fill="#4C3507"/><path d="m146 84 9 2 1 4-9-1v-2h3l-4-1v-2Z" fill="#130904"/><path d="m170 71 4 1v3l5-2 1 5-10-3v-4Z" fill="#BDAF91"/><path d="M131 70c5.398 1.15 10.71 2.424 16 4l-1 2c-5.258-.674-10.026-2.243-15-4v-2Z" fill="#64582F"/><path d="M38 164c6.152.586 6.152.586 8 1l1 2c2.314.73 4.648 1.401 7 2v2c-3.782-.657-7.218-1.72-10.813-3.063l-2.957-1.097L38 166v-2Z" fill="#E7D08B"/><path d="m123 160 .375 1.938L124 164l2 1h-10v-4c4.75-1 4.75-1 7-1Z" fill="#F5CE5F"/><path d="m49 156 1 2 2 1h-2l-1 8-1-2c-2.025-.652-2.025-.652-4-1v-3l4-1 1-4Z" fill="#75613B"/><path d="M68 156h8l-1 5-1-2h-2v3h-2l-1-2-1 2-2-1 2-5Z" fill="#DCBE78"/><path d="m131 117 9 1v2l-5 1-1 4h-1v-6h-2v-2Z" fill="#B09A61"/><path d="M59 92h1c.348 4.877-.583 7.77-3 12h2l-1 4c-1.866-2.297-3.09-3.973-2.824-7.008.855-3.539 1.776-5.92 3.824-8.992Z" fill="#3A311A"/><path d="m168 47 12 2-2 1v3l-10-3v-3Z" fill="#A29574"/><path d="m151 28 10 4v3c-3.558-.61-6.683-1.578-10-3v-4Z" fill="#B2A57D"/><path d="M251 171h10v4h-10v-4Z" fill="#372200"/><path d="M147 172h8l-1 4-6 1-1-5Z" fill="#6A4908"/><path d="M197 159h2v3h5l-1 5h-2l-2-2c-2.069-.643-2.069-.643-4-1v-3h2v-2Z" fill="#D2C166"/><path d="m151 146 1 2 3 1h-2l.125 2.75c-.12 3.128-.516 4.636-2.125 7.25l5 1-1 2-5-1v-7h2l-1-8Z" fill="#BB9C3C"/><path d="M175 143c2.875-.125 2.875-.125 6 0l2 2h-3v3h-8v-2h4l-1-3Z" fill="#332A09"/><path d="M166 126c2.375-.188 2.375-.188 5 0 2 3 2 3 2 6l-7-1v-5Z" fill="#5B4013"/><path d="M164 8c1.653.564 3.297 1.152 4.938 1.75l2.777.984C174 12 174 12 174.816 14.141L175 16c-4.025-1.217-7.593-2.495-11-5V8Z" fill="#A69D7C"/><path d="m154 168 4 1v2h4l-2 5-5-1-1-7Z" fill="#C5AA5C"/><path d="M113 166h9v4h-3l-2 2v-2l-3-1 1-1-2-2Z" fill="#F8DCA5"/><path d="m92 147 4 1v5h6l-1 2-8-1-1-7Z" fill="#E1D283"/><path d="M190 141h2v7l-6 1v-4h3l1-4Z" fill="#302C28"/><path d="m139 138 13 1-1 3-7 1-2-3-3-2Z" fill="#52411B"/><path d="m121 134-1 4-7 1 1-5c3.133-1.044 3.99-.934 7 0Z" fill="#332504"/><path d="M81 133c6.75-.125 6.75-.125 9 1v6l-4-1 1-2h-6v-1h6v-2h-6v-1Z" fill="#615029"/><path d="m174 92 10 2 1 4-8-1 1-2-5-1 1-2Z" fill="#100A01"/><path d="m124 21 2 2-3 6h-2l-1 2h-2c-.313-2.313-.313-2.313 0-5 2.438-1.688 2.438-1.688 5-3l1-2Z" fill="#0B0304"/><path d="M128 11h2c-.813 2.438-.813 2.438-2 5l-3 1-1 3h-2l-2 4-1-3 1.938-.75c2.25-1.066 2.25-1.066 2.812-3.375L124 15h3l1-4Z" fill="#A39E86"/><path d="m217 178 1 5h-10v-1h7v-2l-3.375.125C208 180 208 180 206 178c3.982-1.054 6.982-.841 11 0Z" fill="#352602"/><path d="M260 165v5h-8l1-4c5.875-1 5.875-1 7-1Z" fill="#342108"/><path d="M62 163h2l-1 4 4 1c-3.718 1.24-5.439.57-9.188-.438l-3.292-.87L52 166v-1h10v-2Z" fill="#EDCB82"/><path d="M179 150h10l-1 10c-2-2-2-2-2.125-5.125L186 152l-7-1v-1Z" fill="#DAC381"/><path d="m153 140 4 1h-3v2l1.688.375c2.533.685 4.891 1.616 7.312 2.625-4.084 1.532-7.795.63-12 0l2-6Z" fill="#584915"/><path d="m99 141 2 4-9 1v-3c2.647-1.46 3.894-2 7-2Z" fill="#533E10"/><path d="M49 132c3.538 3.692 3.591 7.094 4 12l-5-1a757.916 757.916 0 0 1-.063-4.938l-.035-2.777C48 133 48 133 49 132Z" fill="#473E30"/><path d="M120 109c-.188 2.313-.188 2.313-1 5-2.563 1.813-2.563 1.813-5 3-.188-2.875-.188-2.875 0-6 3-2 3-2 6-2Z" fill="#AD9B6E"/><path d="M145 38h3l.688 1.813c1.65 2.75 3.51 3.712 6.312 5.187l-1 2a301.162 301.162 0 0 1-4.438-1.813l-2.496-1.019C145 43 145 43 144 40l1-2Z" fill="#4F3E21"/><path d="M168 36h6v2l3 1v3l-9-3v-3Z" fill="#A19776"/><path d="M112 18c0 3.52-.704 4.439-3 7h-2l-1 4-2-1c0-4.33 2.115-5.914 5-9l3-1Z" fill="#534C37"/><path d="m152 18 8 2 1 4-10-3 1-3Z" fill="#AA9F84"/><path d="M106 16h4c-.176 2.38-.697 3.702-2.402 5.379-1.504 1.242-3.05 2.435-4.598 3.621.498-3.735.875-5.812 3-9Z" fill="#100B09"/><path d="m91 175 3 1-4 4 2 1-2 2c-3.125-.375-3.125-.375-6-1 1.252-3.756 2.63-4.147 6-6l1-1Z" fill="#AE8F3F"/><path d="M66 139h1v7l-13-2 1-2h10l1-3Z" fill="#4C3504"/><path d="m182 121 4 1v5l-12-2v-1h8v-3Z" fill="#332113"/><path d="m161 117 3 1c1.188 2.563 1.188 2.563 2 5-7.75-.75-7.75-.75-10-3h3l2-3Z" fill="#332710"/><path d="m146 112 12 1 1 3 2 1c-1.938-.31-3.875-.623-5.813-.938l-3.269-.527C149 115 149 115 146 114v-2Z" fill="#A7905D"/><path d="M85 108h4v8h-4v-8Z" fill="#C4AB6F"/><path d="m199 171 9 1-4 2-2 2h2v2h-5l2-6-2-1Z" fill="#A28941"/><path d="M110 175h15v3c-5.03-.525-10.019-1.106-15-2v-1Z" fill="#7A5410"/><path d="M64 171c4.571.549 8.674 1.417 13 3-2.647 1.46-3.894 2-7 2l-1-2h-5v-3Z" fill="#694904"/><path d="M238 169v2c-3.877 1.193-6.916 2-11 2l1-3c3.215-1.607 6.436-1.057 10-1Z" fill="#43300E"/><path d="M92 164v4h-3v-2h-2v2l-10 1c2.438-2.438 4.186-2.762 7.5-3.625.98-.26 1.96-.52 2.969-.79C90 164 90 164 92 164Z" fill="#7E5706"/><path d="m257 164 1-1h2l-1 3h-6l-2 4c-1-4.875-1-4.875-1-6 4.75-1.125 4.75-1.125 7 0Z" fill="#554B29"/><path d="M114 149c-1 2-1 2-2 3h1v5h-3v-5l-4-1c2.559-2.559 4.622-3.689 8-2Z" fill="#715615"/><path d="m248 144 1 2h7v3l-9 1 1-6Z" fill="#312D3D"/><path d="M130 137h6l-3 1v4h6v1h-9c-1-4-1-4 0-6Z" fill="#58451E"/><path d="M73 96h8v5h-5v-3h-3v-2Z" fill="#D2B875"/><path d="M136 174c3.625-.201 5.865.142 9 2v2h-9v-4Z" fill="#B89D4D"/><path d="M56 170h2v2l6-1v3l5-1-2 3c-1.65-.422-3.295-.863-4.938-1.313l-2.777-.738L57 173l-1-3Z" fill="#C3A551"/><path d="M26 163c1.46.45 2.918.91 4.375 1.375l2.46.773C35 166 35 166 37 168c-3.41 1.136-4.003.867-7.188-.438l-2.167-.87L26 166v-3Z" fill="#EAD092"/><path d="M88 153c2.139 2.139 2.427 3.133 3 6l-3 1-1 2-3-3 3-2-3-1 3-1 1-2Z" fill="#DBC641"/><path d="M177 137c2.716.905 5.348 1.925 8 3l1-2v4c-3.947.18-6.598.094-10-2l1-3Z" fill="#463726"/><path d="m182 129 2 1v3l4 2v2l-10-2 4-1v-5Z" fill="#B6AB77"/><path d="M130 111v6l-7-1 1-3c4.21-2 4.21-2 6-2Z" fill="#201406"/><path d="m147 75 7 1-1 2h-2l1 5h-3v-5h-2v-3Z" fill="#544519"/><path d="M132 72h1v6l-7 1 1-5 3-1v4h2v-5Z" fill="#8D7B4F"/><path d="M121 67v4l-7 4c.34-3.151.58-4.608 2.938-6.813C119 67 119 67 121 67Z" fill="#B1A582"/><path d="m175 55 2.375.563c2.596.697 2.596.697 4.625-.563l1 5-3 1-2-1v-2l-3-1v-2Z" fill="#0B0705"/><path d="M104 38c1 3 1 3-.125 6.063-2.073 3.248-3.23 3.952-6.875 4.937l1-4h2l1-4h2l1-3Z" fill="#888572"/><path d="m131 35 1 2c1.993.261 3.988.517 5.988.715 2.307.327 4.04 1.052 6.012 2.285v2a428.986 428.986 0 0 1-5.313-1.313l-2.988-.738C133 39 131.79 38.182 130 36l1-1Z" fill="#3A2E13"/><path d="M128 4h2l1 5h-2l-1 3h-3V9h2l1-5Z" fill="#0C0501"/><path d="m189 172 7 1 2 5c-2.25.313-2.25.313-5 0-4-4.216-4-4.216-4-6Z" fill="#8B7840"/><path d="m240.75 170.875 2.422.055L245 171c-1 2-1 2-3 3-3.937 1.312-6.125.243-10-1 3.062-1.784 5.22-2.229 8.75-2.125Z" fill="#735B2A"/><path d="M195 168h10v3c-6.625.125-6.625.125-10-1v-2Z" fill="#FDE5B0"/><path d="m171 159 2 1v6c-5.538.37-5.538.37-7.875-1.5L164 163h6l1-4Z" fill="#B89C50"/><path d="m196 156 1 2c2.322.407 4.657.744 7 1l-1 4-4-1v-3h-2v2l-2-1 1-4Z" fill="#5A522E"/><path d="m253.625 154.438 2.477.308L258 155c-3.006 3.006-5.824 2.596-10 3l-1-3c2.52-1.26 3.854-.919 6.625-.563Z" fill="#2D252B"/><path d="M68 149h9v3h-9v-3Z" fill="#483204"/><path d="M188 135c1.044 3.133.934 3.99 0 7h-2l-1-2c-2.025-.652-2.025-.652-4-1v-3l7 1v-2Z" fill="#2A2611"/><path d="m151 131 6 1 1 4-7 1v-6Z" fill="#30220B"/><path d="m158 122 3 1 1 6 6 2c-4.09 1.364-4.09 1.364-7 0-1.953-3.209-3-5.22-3-9Z" fill="#8B7234"/><path d="M130 128c3 1 3 1 4 2.938l1 2.062 3 2c-5.75.125-5.75.125-8-1v-6Z" fill="#564A1C"/><path d="m123 111 3 2a397.108 397.108 0 0 1-3.813 2.5l-2.144 1.406C118 118 118 118 115 118c1.464-4.392 3.978-4.88 8-7Z" fill="#5D4F23"/><path d="M57 105c2.301 3.452 2.138 4.235 1.625 8.188l-.336 2.73L58 118l-1-2h-2c.14-1.646.287-3.292.438-4.938.08-.916.162-1.833.246-2.777C56 106 56 106 57 105Z" fill="#6A5D32"/><path d="m153 91 4 1 1 6-4-1-1-6Z" fill="#B1A06A"/><path d="M174 83c7.75 1.875 7.75 1.875 10 3l-1 6c-2-2-2-2-3-5-3.008-1.225-3.008-1.225-6-2v-2Z" fill="#5E5134"/><path d="M89 66h3v2h2v4l2 1-4 2c-1.063-1.875-1.063-1.875-2-4l1-2h-2v-3Z" fill="#0E0E0C"/><path d="m168 25 7 2 1 4c-3.344-.557-6.033-1.352-9-3l1-3Z" fill="#ACA580"/><path d="M69 165h6l-2 1 1 7-2-1 1-2h-4v-5Z" fill="#E8C57B"/><path d="m10 170-2 1-1 2-2-1-2 2-3-4c4.082-2.1 5.918-2.1 10 0Z" fill="#A49781"/><path d="M24 160h8l-1 3c-5.75 1-5.75 1-8 1l1-4Z" fill="#7D6B57"/><path d="M147 146h4l1 8-3 1v-7h-2v-2Z" fill="#F1D176"/><path d="m122 131 2 1v1l5 1c-3.228 2.152-4.284 2.2-8 2l-1 2-1-6 3-1Z" fill="#433107"/><path d="M99 79c0 3.599-.958 5.095-3 8h-2v-2l-2-1 3-1 1-3 3-1Z" fill="#130C03"/><path d="m172 76 9 1v2h2v2a1126.4 1126.4 0 0 1-4.375-.938l-2.46-.527C174 79 174 79 172 78v-2Z" fill="#5D5537"/><path d="M117 53c2.625-.188 2.625-.188 5 0v2l-3 1-1 5-1-3-4 2a56.54 56.54 0 0 1 4-7Z" fill="#362D1A"/><path d="m116 49 7 2c-1.125 1.5-1.125 1.5-3 3-3.188.188-3.188.188-6 0 0-3 0-3 2-5Z" fill="#1D190E"/><path d="m160 21 4 2-1 2c-2.066.414-2.066.414-4.563.625l-2.503.227L154 26l-1-4c5.75.875 5.75.875 8 2l-1-3Z" fill="#3D3621"/><path d="M215 180v2l-13 1v-1h5v-2c2.862-1.43 4.934-.6 8 0Z" fill="#72641D"/><path d="M269 163h6l-1 5h-4l-1-5Z" fill="#4A3108"/><path d="M133 161c1.458-.027 2.917-.046 4.375-.063l2.46-.035C142 161 142 161 144 162v3c-7.625-1.75-7.625-1.75-11-4Z" fill="#F3D68F"/><path d="M81 160c3.477 1.256 6.094 2.733 9 5a415.708 415.708 0 0 1-4.813-.375c-.893-.07-1.786-.14-2.707-.21C80 164 80 164 77 162h4v-2Z" fill="#E0BF4D"/><path d="M220 152h2v4h2v4l-4 1v-9Z" fill="#33343E"/><path d="m78 148 1 2h7v2l2 1-9-1-1 2v-6Z" fill="#4A3603"/><path d="M258 149v1l-2.117.332-2.758.48-2.742.458c-2.727.56-2.727.56-4.383 3.73l-2-4c4.927-1.97 8.78-2.18 14-2Z" fill="#322B1C"/><path d="m96 132 2 2-2 3v-2h-2l-.313 1.938L93 139l-3 1v-5l6-3Z" fill="#7B6738"/><path d="M59 106h3l1 3h2v2l-4 1v2h-2v-8Z" fill="#E7D396"/><path d="m184 95 2 1-.063 3.375c-.2 3.457-.2 3.457 1.063 5.625l-2 3v-2h-2v-5h2v-2l-2-1 1-3Z" fill="#282316"/><path d="M177 97c5.75.875 5.75.875 8 2v2h-2l-1 3-1-3-2-1-2 2v-5Z" fill="#6D603B"/><path d="m141 95 11 2 1 3c-1.626-.309-3.25-.622-4.875-.938l-2.742-.527C143 98 143 98 141 97v-2Z" fill="#8B7A4C"/><path d="M170 70c4.318.508 8.033 1.197 12 3l-3 2v-2l-5 2-1-3-3-2Z" fill="#625240"/><path d="m131 52 1 2h-2l-1 3a95.29 95.29 0 0 1-5 4c0-3 0-3 1-6h2l1-2 3-1Z" fill="#070304"/><path d="M113 28h2c-1.364 2.992-2.95 5.29-5.125 7.75l-1.633 1.86L107 39l-1-3 3-1c.733-2.015.733-2.015 1-4h2l1-3Z" fill="#A39E85"/><path d="M131 6c2.867.573 3.861.861 6 3h-4v3l-3 1-1-4h2V6Z" fill="#2F291D"/><path d="M136 178h8l-3 1v3l-8-1 3-1v-2Z" fill="#735914"/><path d="m128 171 6 2-3 4-6-1 3-1v-4Z" fill="#D5A74F"/><path d="M114 152h4v3h-3l-1 5-1-2-2-1h2l1-5Z" fill="#EFD172"/><path d="m140 144 11 1-4 1v2h-6l2-1v-2l-3-1Z" fill="#BC9F4C"/><path d="m79 136 8 1v2h-7v6h-1v-9Z" fill="#443308"/><path d="M110 129v5l-6 1v-4c3.75-2 3.75-2 6-2Z" fill="#D1C08B"/><path d="m144 98 4 2-2 1 1 3-10-2 1-3v2l7 1-1-4Z" fill="#2F2209"/><path d="m84 89 9 1-1 4-1-1a235.648 235.648 0 0 0-7-1v-3Z" fill="#281F12"/><path d="M130 70c2 2 2 2 2.125 4.625L132 77h-2v-4l-4 3-2-1c3.75-3.875 3.75-3.875 6-5Z" fill="#2C1D0A"/><path d="M148 50h2v5l6 2-4 2c-3.938-3.323-3.938-3.323-4.25-6.75L148 50Z" fill="#3B2E12"/><path d="m131 43 6 1v2l-4 2-1-2-2 2-2-2 3-1v-2Z" fill="#5B5234"/><path d="M130 37c3 2 3 2 3.688 4.125L134 43l-6 1-1-3h2l1-4Z" fill="#050601"/><path d="M154 29c6.396.603 6.396.603 9 2.313 1 1.687 1 1.687.688 3.875L163 37l-3-2v-3l-6-2v-1Z" fill="#55492E"/><path d="M97 24h4v2l2 1-5 7c-1-3-1-3-.063-5.188L99 27l-2-3Z" fill="#0D0A07"/><path d="m122 179 9 2v2h-9v-4Z" fill="#FBE7B9"/><path d="m153 162 5 1-2 1c.752 3.278.752 3.278 4 5-2.375.188-2.375.188-5 0-2-3-2-3-2-7Z" fill="#EACB70"/><path d="M68 152h9v4h-8v-1h5v-2h-6v-1Z" fill="#735A2F"/><path d="M101 139c2.993.998 3.948 1.752 6 4l-7 1-1-4 2-1Z" fill="#46330D"/><path d="m165 141 6 1v5l-4-1v-4l-2-1Z" fill="#A7A160"/><path d="M56 137h6v4h-7l1-4Z" fill="#C8B271"/><path d="m115 126 2 4c-3 2-3 2-6 3l1-6 3-1Z" fill="#CDBA91"/><path d="m99 111 2 2-2 3h2v2l-4 1v-3l-3 1v-2l3-1 2-3Z" fill="#382C0F"/><path d="M69 113h2l-1 10c-2-2-2-2-2.188-5.563C68 114 68 114 69 113Z" fill="#624318"/><path d="m141.688 82.813 2.449.082L146 83v3l-7-1v2l-5-1c2.419-2.983 3.898-3.352 7.688-3.188Z" fill="#271A0F"/><path d="M168 81c2.125.938 2.125.938 4 2l-1.5 1.25c-1.934 1.872-1.934 1.872-1.5 5.75l-2-1a108.817 108.817 0 0 1-1-7l2-1Z" fill="#56451E"/><path d="m112 73 2 3-7 5c.35-3.242.562-4.615 3.063-6.813L112 73Z" fill="#B3AB8D"/><path d="m165 67 8 2-1.938.813C168.67 70.886 168.67 70.886 168 74h-2l-1-7Z" fill="#3E3114"/><path d="m148 62 9 2-1 2-3-1-1 3h-2v-5l-2-1Z" fill="#615125"/><path d="m158 37 6 1-1 3-6 1 1-5Z" fill="#120A05"/><path d="m131 18 6 2-4 1v3h-3l-1-4h2v-2Z" fill="#353116"/><path d="M117 17h3l-1 6-5-1v-2h2l1-3Z" fill="#0D0600"/><path d="M155 14c5.75 1.875 5.75 1.875 8 3l-1 3-3-2-3 1-1-5Z" fill="#070501"/><path d="M131.063 14.938 134 15l-1 3h-2v2l-3 1a88.406 88.406 0 0 1-1-5c1-1 1-1 4.063-1.063Z" fill="#050501"/><path d="m108 176 7 1-1 3h-7l1-4Z" fill="#F9E4A3"/><path d="M52 173h7l1 4c-2.763-.523-5.326-1.109-8-2v-2Z" fill="#503205"/><path d="M211 168c1.033 2.788 1.045 3.868.063 6.75L210 177h-3l-1-6h5v-3Z" fill="#D4C071"/><path d="M97 169h8l1 3h-9v-3Z" fill="#D6B058"/><path d="M184 167h7l-1 3h-7l1-3Z" fill="#FDEAAE"/><path d="m82 162 1 2 3 1c-3 2-3 2-7 2v-3l-2-1 5 1v-2Z" fill="#CAA737"/><path d="M53 158h5l-1 3 3 1h-8l1-4Z" fill="#D5BE7A"/><path d="M56 152h8l1 3-9-1v-2Z" fill="#4C390D"/><path d="M114 148h2v2h2v2l-2.375.313c-2.955.463-2.955.463-4.625 3.687v-5h2l1-3Z" fill="#B99A43"/><path d="M104 146h2l.313 2.375c.463 2.955.463 2.955 3.687 4.625-1.813.688-1.813.688-4 1-1.813-1.125-1.813-1.125-3-3 .313-2.688.313-2.688 1-5Z" fill="#937D42"/><path d="M152 146c6.75-.125 6.75-.125 9 1v2l-9-1v-2Z" fill="#DAC17B"/><path d="m82 139 6 1-1 2-3 1v2h-2v-6Z" fill="#B49B62"/><path d="M188 131h2l2 9-5-1 2-1-1-7Z" fill="#282B2A"/><path d="M118 123v2c-5.625 3-5.625 3-9 3v-2h3v-2c3-1 3-1 6-1Z" fill="#605322"/><path d="m100 119 2 3 5-2-1 4-7 1 1-6Z" fill="#67582B"/><path d="m140 103 1 4h2l1 5-6-2 1-4v3c1.296-1.066 1.296-1.066 1.063-3.563L140 103Z" fill="#7E6726"/><path d="m100 106 1 4-3 1-1 2c-2.063.625-2.063.625-4 1v-3c3-2 3-2 6-2l1-3Z" fill="#C2B590"/><path d="M115 58h2v5l-4 2c-.125-2.375-.125-2.375 0-5l2-2Z" fill="#7C7257"/><path d="M166 56h3v6l2 1-5-1c-1.125-3.75-1.125-3.75 0-6Z" fill="#392A0C"/><path d="M137 9c2.813-.313 2.813-.313 6 0 1.886 2.389 3 3.919 3 7h-2l-1-4-6-1V9Z" fill="#2F2A15"/><path d="M149 0c6.625-.25 6.625-.25 10 2v2h-5l-1-3c-2.015-.733-2.015-.733-4-1Z" fill="#322712"/><path d="M156 0c2.313-.313 2.313-.313 5 0 1.975 2.61 2.966 4.897 4 8-2 0-2 0-4.125-1.875C159 4 159 4 159 2l-3-1V0Z" fill="#120F06"/><path d="M164 175h2c.934 3.01 1.044 3.867 0 7h-4l-1-4h3v-3Z" fill="#74651C"/><path d="m216 172 1 3h-2v2h-4v-4l5-1Z" fill="#A29149"/><path d="m0 171 3 2 2-2c1.021.979 2.02 1.98 3 3v1H0v-4Z" fill="#EDDDB3"/><path d="M180 171c4.044 1.348 5.549 3.657 8 7h-5l-1-3-2-1v-3Z" fill="#938241"/><path d="m26 169 3 1v7l-2 1-1-9Z" fill="#A28022"/><path d="M214 162h1l1 8-6-2c1-2 1-2 4-3v-3Z" fill="#54483C"/><path d="M23 164v7l-1-2c-2.025-.652-2.025-.652-4-1v-3c2-1 2-1 5-1Z" fill="#837B6F"/><path d="m163 160 2 5-6-1v-2l-2-1c2.076-.553 3.844-1 6-1Z" fill="#604803"/><path d="m81 155 6 2c-1 3-1 3-2 4-2.063-.438-2.063-.438-4-1v-5Z" fill="#88740F"/><path d="M236 144c1.938.688 1.938.688 4 2 .75 2.625.75 2.625 1 5l-3 1v-4l-2-1v-3Z" fill="#2B2D2C"/><path d="M133 144c6.625-.125 6.625-.125 10 1v2l-10-1v-2Z" fill="#ECC879"/><path d="m61 89 11 1v1l-11 2v-4Z" fill="#716852"/><path d="m170 77-2 3h-4v-2l-2-1c2.862-1.43 4.934-.6 8 0Z" fill="#0F0601"/><path d="m158 69 1 2h2v3l-7-2v-2l4-1Z" fill="#5A4E1B"/><path d="m172 63 8 2v2l2 1c-1.482-.254-2.96-.53-4.438-.813l-2.496-.457L173 66l-1-3Z" fill="#464321"/><path d="m120 42 1 3-5 5-1-3 5-5Z" fill="#A9A77C"/><path d="m173 22 5 3-1 4-2-1v-2l-3-1 1-3Z" fill="#080503"/><path d="M126 22h4c-1.75 4.875-1.75 4.875-4 6l-2-2 2-4Z" fill="#767150"/><path d="m157 5 3 1v7l-4-1 2-4-2-2 1-1Z" fill="#C7B79A"/><path d="M123 5c.625 1.875.625 1.875 1 4l-2 2-1-1-2 3-2-1c3.75-5.875 3.75-5.875 6-7Z" fill="#3D3729"/><path d="M90 178c6.625.75 6.625.75 10 3-4.054 1.158-6.218.837-10-1v-2Z" fill="#5B3E03"/><path d="m48 169 9 3v1l-8 1-1-5Z" fill="#735A11"/><path d="M238 158h1l.148 1.934.227 2.504c.07.823.14 1.647.21 2.496L240 167l2 1c-3 1-3 1-5.188.063L235 167l3-1v-8Z" fill="#564843"/><path d="m172 160 8 2v2h-7l-1-4Z" fill="#564101"/><path d="m123 150 3 1-1 3c-2.563 1.188-2.563 1.188-5 2 .375-2.438.375-2.438 1-5l2-1Z" fill="#F2D27C"/><path d="m148 137 9 1v2l-9-1v-2Z" fill="#CAB77A"/><path d="m129 134 1 3-5 2v-2l-4-1 8-2Z" fill="#7B6627"/><path d="m155 101 6 1-3 4-4-1 1-4Z" fill="#0C0801"/><path d="M150 100h6l-2 5 4 1h-5l-.375-2.438L152 101l-2-1Z" fill="#28210C"/><path d="m99 90 1 3-2 3c-2.625.188-2.625.188-5 0l2-4h4v-2Z" fill="#150E00"/><path d="m133 73 5 1 1 3-3 1-3-2v-3Z" fill="#D3BD8F"/><path d="m152 52 4 1 1 4-5-1v-4Z" fill="#C1AD8A"/><path d="M111 42c-1.186 3.375-2.276 5.647-5 8l-2-1c3.138-7 3.138-7 7-7Z" fill="#9E997F"/><path d="m104 25 2 1-7 9-1-3c1.813-2.688 1.813-2.688 4-5h2v-2Z" fill="#A29D83"/><path d="M70 177c3.188.875 3.188.875 6 2v2l-9-2 3-2Z" fill="#614307"/><path d="M145 168h7v3l-7-1v-2Z" fill="#FBD46D"/><path d="m215 162 4 2-1 5-3-2c-.188-2.625-.188-2.625 0-5Z" fill="#2B281F"/><path d="M159 152h2v4h2v2l-5 1 1-7Z" fill="#655208"/><path d="M161 151h8c.625 2.375.625 2.375 1 5l-2 2-.125-1.875L167 154c-2.996-1.305-2.996-1.305-6-2v-1Z" fill="#694D01"/><path d="M180 145h3v4h-10v-1h7v-3Z" fill="#6A6330"/><path d="M102 133v4l-5 1v-4c3-1 3-1 5-1Z" fill="#DBC694"/><path d="m177 128 4 1-1 2h2v3l-4-1-1-5Z" fill="#6F5B2C"/><path d="M97 125c2.25.25 2.25.25 4 1l-6 5-2-2c1.75-2.063 1.75-2.063 4-4Z" fill="#514121"/><path d="M150 123h2v2h2v4l-4-1v-5Z" fill="#533E0A"/><path d="M129 120v5l-4 1c.375-2.438.375-2.438 1-5 2-1 2-1 3-1Z" fill="#D1BB95"/><path d="M160 109c1.5 1.375 1.5 1.375 3 3v2l3-1-1 3-5-1v-6Z" fill="#756329"/><path d="m111 97 3 1-2 4v-2l-5 2-1-2c2.313-1.563 2.313-1.563 5-3Z" fill="#544726"/><path d="M166 94c2 1 2 1 3 2 .04 1.666.043 3.334 0 5l-3-1c-.75-1.938-.75-1.938-1-4l1-2Z" fill="#4E3B17"/><path d="m64 91 8 1v2l-9-1 1-2Z" fill="#180E01"/><path d="m163 89 8 1-2 4h-3l-1-3-2-2Z" fill="#150E01"/><path d="M138 87h2v3l5 1v3h-4v-3h-2l-1-4Z" fill="#BFB177"/><path d="M174 83v2h-3l1 5h-3l-1-5c3-2 3-2 6-2Z" fill="#897545"/><path d="M153 65h3l1 5-5-1 1-4Z" fill="#CAB58B"/><path d="m112 50 3 1c-4.75 4.875-4.75 4.875-7 6l1-4h2l1-3Z" fill="#AFA98D"/><path d="M150 40h5v4l-5-1v-3Z" fill="#A69479"/><path d="m129 27 5 1v2h-3v2h-3l-1-3h2v-2Z" fill="#060602"/><path d="m115 21 5 3-4 4v-4h-2l1-3Z" fill="#625C45"/><path d="M62 179c5.75 1.75 5.75 1.75 8 4h-8v-4Z" fill="#EDD091"/><path d="m94 175 7 4c-3.815 1.467-6.29.433-10-1l3-3Z" fill="#CFB263"/><path d="M83 173c4.554-.37 4.554-.37 6.813 1.5L91 176c-2.313.625-2.313.625-5 1l-3-2v-2Z" fill="#CFB368"/><path d="M241 172h6l1 3-7 1v-4Z" fill="#634502"/><path d="M220 173h7v2h-3v2h-2v-2h-2v-2Z" fill="#3E2E09"/><path d="m212 168 5 2-1 3h-5l1-5Z" fill="#4E3B12"/><path d="m208 162 2 4-6 1c.313-1.938.313-1.938 1-4l3-1Z" fill="#66592A"/><path d="M268 157c2 3 2 3 2 6h-4v-5l2-1Z" fill="#C9A259"/><path d="m189 156 5 5-2 2c-2.125-.375-2.125-.375-4-1l1-6Z" fill="#443918"/><path d="M122 154h3v2l4 1-7 1v-4Z" fill="#CAAF48"/><path d="m130 134 10 1c-3.991 1.996-5.7 2.195-10 2v-3Z" fill="#D5B578"/><path d="M70 126h3l1 2c2.017 1.134 2.017 1.134 4 2h-8v-4Z" fill="#544019"/><path d="M114 112v5l-5 1v-4c3.875-2 3.875-2 5-2Z" fill="#DBCA98"/><path d="m103 111 2 4-6 1c1.75-3.875 1.75-3.875 4-5Z" fill="#221603"/><path d="m141 103 6 1v2l-6 1v-4Z" fill="#9F8C4A"/><path d="m171 98 5 1v4l-4-1-1-4Z" fill="#C9BC8A"/><path d="M149 92h2l1 3h2l1 3-6-1v-5Z" fill="#412A08"/><path d="M104 79h3c-.25 1.875-.25 1.875-1 4-2.063 1.25-2.063 1.25-4 2 .875-4.875.875-4.875 2-6Z" fill="#968668"/><path d="m97 74 3 4-1 2h-4v-4h2v-2Z" fill="#6F6956"/><path d="m123 51 1 4-6 4 1-4h3l1-4Z" fill="#B7AD8C"/><path d="M104 50h2c-1.02 3.773-1.659 4.802-5.125 6.813L98 58v-2a262.496 262.496 0 0 1 5-4l1-2Z" fill="#27200E"/><path d="m110 44 1 3h4v3l-4 1-1-7Z" fill="#2E2514"/><path d="M116 35h2l-1 4h-2v2l-3 1 1-4h2l1-3Z" fill="#A7A188"/><path d="M112 22h2v2h2l-1 3-4-1 1-4Z" fill="#170E0C"/><path d="m136 13-1 2h-3l-1 2v-2h-2v-2c2.667-1.333 4.167-.671 7 0Z" fill="#221A0C"/><path d="m137 5 4 2v3c-2.867-.573-3.861-.861-6-3l2-2Z" fill="#0E0D01"/><path d="m124 0 3 1a105.022 105.022 0 0 1-4 5h-2l-1 2c.6-3.356 1.846-5.378 4-8Z" fill="#A29C86"/><path d="m66 177 4 1-1 1 3 3-2 1c-2-1.313-2-1.313-4-3v-3Z" fill="#4F3107"/><path d="m197 164 4 1v2h2l1-2v2l2 1c-5.625.25-5.625.25-9-2v-2Z" fill="#A88A3A"/><path d="M116 165h10v3l-10-2v-1Z" fill="#B48F44"/><path d="M34 164h2v2l7 1c-1.625 1.188-1.625 1.188-4 2-3.25-1.375-3.25-1.375-6-3l1-2Z" fill="#795E26"/><path d="m153 162 1 6-4-1-1-4c2-1 2-1 4-1Z" fill="#FEE389"/><path d="M115 155h3v2l2 1-1 2-4-1v-4Z" fill="#CFB430"/><path d="M173 152h6l1 2-2.938.375L174 155l-1 2v-5Z" fill="#70540A"/><path d="M125 148h4v6l-2 1v-5h-2v-2Z" fill="#A88307"/><path d="M98 148h4c1.75 2 1.75 2 3 4l-7-1v-3Z" fill="#6D581A"/><path d="M93 146h7l-2 1v6h-2l-.375-2.375c-.416-2.766-.416-2.766-2.625-4.625Z" fill="#8D7936"/><path d="M124 139h2v2h2v2l-5 1 1-5Z" fill="#342406"/><path d="M99 140c-2.918 1.945-4.625 2.453-8 3l-1-2c5.625-2.125 5.625-2.125 9-1Z" fill="#7E6932"/><path d="M149 129h6l1 3-7-1v-2Z" fill="#C5B06C"/><path d="M138 125v2h-2v2l-5-1v-2c4.75-1 4.75-1 7-1Z" fill="#BBA35F"/><path d="M90 112h1v11l-1-2h-2v-3h2v-6Z" fill="#7C6439"/><path d="m97 119 3 1-1 6-2-1v-6Z" fill="#9E8F5E"/><path d="M122 114c2.217 1.109 4.036 2.494 6 4l-4 2v-2h-2v-2l-2-1 2-1Z" fill="#34250B"/><path d="M179 112h5l1 2h-2v4h-2v-5l-2-1Z" fill="#BDAE84"/><path d="M147 104h4v3l-4 2-1-3 1-2Z" fill="#867341"/><path d="M60 97h2v3h-2l-1 4h-2c1.875-5.875 1.875-5.875 3-7Z" fill="#827249"/><path d="m74 93 8 1v2c-5.75.125-5.75.125-8-1v-2Z" fill="#352603"/><path d="m62 92 8 2v1l-9 1 1-4Z" fill="#635539"/><path d="M129 87h4v6l-3-1-1-5Z" fill="#2F2003"/><path d="m160 81 4 1v4l-4-1v-4Z" fill="#CCB78C"/><path d="m145 69 5 1-2 5-4-2h2l-1-4Z" fill="#1B1508"/><path d="m128 64 3 1a105.022 105.022 0 0 1-4 5h-2c.573-2.867.861-3.861 3-6Z" fill="#191005"/><path d="M131 63c6.625.75 6.625.75 10 3-6.625.125-6.625.125-10-1v-2Z" fill="#594920"/><path d="m108 27 1 3h-2v4l-3 1c0-3.908 1.506-5.116 4-8Z" fill="#20180E"/><path d="m118 8 2 1-6 7-1-3 3-1c1.209-2 1.209-2 2-4Z" fill="#A29B83"/><path d="m120 0 4 1-5 5c0-3 0-3 1-6Z" fill="#120D09"/></svg>